<svg width="25" height="29" viewBox="0 0 25 29" fill="none" xmlns="http://www.w3.org/2000/svg">
<g clip-path="url(#clip0_1283_65)">
<path d="M17.6593 29.625H7.33871C5.61266 29.625 4.14254 28.3656 3.84296 26.6303L1.29356 11.8227C1.19833 11.2719 1.55941 10.7475 2.09905 10.6503C2.64067 10.5551 3.15254 10.9216 3.24777 11.4724L5.79915 26.28C5.93009 27.0454 6.57885 27.6022 7.3407 27.6022H17.6613C18.4231 27.6022 19.0719 27.0474 19.2029 26.282L21.7542 11.4744C21.8495 10.9236 22.3633 10.5571 22.903 10.6523C23.4426 10.7495 23.8037 11.2739 23.7084 11.8247L21.1571 26.6323C20.8575 28.3676 19.3874 29.6271 17.6613 29.6271L17.6593 29.625Z" fill="white"/>
<path d="M24.008 8.74487H0.991985C0.444409 8.74487 0 8.29131 0 7.73245C0 7.1736 0.444409 6.72003 0.991985 6.72003H7.19189V5.12244C7.19189 3.12594 8.78502 1.5 10.7412 1.5H14.2568C16.215 1.5 17.8061 3.12594 17.8061 5.12244V6.72003H24.006C24.5536 6.72003 24.998 7.1736 24.998 7.73245C24.998 8.29131 24.5536 8.74487 24.006 8.74487H24.008ZM9.17586 6.72003H15.8222V5.12244C15.8222 4.24163 15.1198 3.52484 14.2568 3.52484H10.7412C9.87818 3.52484 9.17586 4.24163 9.17586 5.12244V6.72003Z" fill="white"/>
</g>
<defs>
<clipPath id="clip0_1283_65">
<rect width="25" height="28.125" fill="white" transform="translate(0 0.5)"/>
</clipPath>
</defs>
</svg>
