<svg width="28" height="18" viewBox="0 0 28 18" fill="none" xmlns="http://www.w3.org/2000/svg">
<path d="M0.75 15V14.25C0.75 11.3505 3.1005 9 6 9V9C8.89949 9 11.25 11.3505 11.25 14.25V15" stroke="black" stroke-width="1.5" stroke-linecap="round"/>
<path d="M9.75 10.5V10.5C9.75 8.42893 11.4289 6.75 13.5 6.75V6.75C15.5711 6.75 17.25 8.42893 17.25 10.5V10.875" stroke="black" stroke-width="1.5" stroke-linecap="round"/>
<path d="M6 9C7.65685 9 9 7.65685 9 6C9 4.34315 7.65685 3 6 3C4.34315 3 3 4.34315 3 6C3 7.65685 4.34315 9 6 9Z" stroke="black" stroke-width="1.5" stroke-linecap="round" stroke-linejoin="round"/>
<path d="M13.5 6.75C14.7426 6.75 15.75 5.74264 15.75 4.5C15.75 3.25736 14.7426 2.25 13.5 2.25C12.2574 2.25 11.25 3.25736 11.25 4.5C11.25 5.74264 12.2574 6.75 13.5 6.75Z" stroke="black" stroke-width="1.5" stroke-linecap="round" stroke-linejoin="round"/>
<path d="M19 11H22M25 11H22M22 11V8M22 11V14" stroke="#1E1E1E" stroke-width="1.5" stroke-linecap="round" stroke-linejoin="round"/>
</svg>
