<svg width="26" height="25" viewBox="0 0 26 25" fill="none" xmlns="http://www.w3.org/2000/svg">
<path d="M22.6632 24.9987C21.9786 24.9987 21.2941 24.7367 20.7699 24.218L12.8333 16.283L4.89657 24.218C3.85368 25.2607 2.15831 25.2607 1.11542 24.218C0.0725288 23.1753 0.0725288 21.4803 1.11542 20.4377L9.0521 12.5027L1.11542 4.56769C0.0725288 3.51968 0.0725288 1.83002 1.11542 0.782002C2.16366 -0.260667 3.85368 -0.260667 4.90192 0.782002L12.8386 8.71698L20.7699 0.782002C21.8128 -0.260667 23.5082 -0.260667 24.5511 0.782002C25.594 1.82467 25.594 3.51968 24.5511 4.56235L16.6144 12.4973L24.5511 20.4323C25.594 21.475 25.594 23.17 24.5511 24.2127C24.027 24.7367 23.3424 24.9933 22.6578 24.9933L22.6632 24.9987Z" fill="white"/>
</svg>
