<svg width="24" height="25" viewBox="0 0 24 25" fill="none" xmlns="http://www.w3.org/2000/svg">
<path d="M8.49994 7.5C8.2238 7.5 7.99994 7.27614 7.99994 7C7.99994 6.72386 8.2238 6.5 8.49994 6.5C8.77608 6.5 8.99994 6.72386 8.99994 7C8.99994 7.27614 8.77608 7.5 8.49994 7.5Z" fill="black" stroke="black" stroke-width="1.5" stroke-linecap="round" stroke-linejoin="round"/>
<path d="M15.4999 7.5C15.2238 7.5 14.9999 7.27614 14.9999 7C14.9999 6.72386 15.2238 6.5 15.4999 6.5C15.7761 6.5 15.9999 6.72386 15.9999 7C15.9999 7.27614 15.7761 7.5 15.4999 7.5Z" fill="black" stroke="black" stroke-width="1.5" stroke-linecap="round" stroke-linejoin="round"/>
<path d="M9.99994 11.5H13.9999M21.9999 12.5C21.9999 18.0228 17.5228 22.5 11.9999 22.5C6.47709 22.5 1.99994 18.0228 1.99994 12.5C1.99994 6.97715 6.47709 2.5 11.9999 2.5C17.5228 2.5 21.9999 6.97715 21.9999 12.5Z" stroke="black" stroke-width="1.5" stroke-linecap="round" stroke-linejoin="round"/>
</svg>
