<?xml version="1.0" encoding="UTF-8"?>
<svg xmlns="http://www.w3.org/2000/svg" version="1.1" viewBox="0 0 804.26 632.26">
  <!-- Generator: Adobe Illustrator 29.1.0, SVG Export Plug-In . SVG Version: 2.1.0 Build 142)  -->
  <defs>
    <style>
      .st0 {
        fill: #e8505b;
      }

      .st1 {
        fill: #fafafa;
      }

      .st2 {
        fill: #88bdfd;
      }

      .st3, .st4 {
        fill: #263238;
      }

      .st5 {
        fill: #91c1fa;
      }

      .st6 {
        fill: #e9ebfb;
      }

      .st7 {
        opacity: .3;
      }

      .st8 {
        fill: #eb996e;
      }

      .st9 {
        fill: #fff;
      }

      .st10 {
        fill: #7489e8;
      }

      .st11 {
        fill: #192023;
      }

      .st12 {
        fill: #e0e0e0;
      }

      .st13 {
        fill: #458de1;
      }

      .st14 {
        opacity: .2;
      }

      .st15 {
        fill: #ffbe9d;
      }

      .st4 {
        stroke: #263238;
        stroke-miterlimit: 10;
        stroke-width: 2px;
      }

      .st16 {
        fill: #ebebeb;
      }

      .st17 {
        display: none;
      }

      .st18 {
        fill: #f4f4f4;
      }

      .st19 {
        fill: #f5f5f5;
      }

      .st20 {
        fill: #7bb5fa;
      }

      .st21 {
        fill: #d9dae8;
      }
    </style>
  </defs>
  <g id="Background_Simple" class="st17">
    <path class="st16" d="M563.07,253.1l-2.46-4c-20.4-33.2-57.52-52.91-96.37-49.93-4.44.34-8.86.97-13.22,1.89-34.91,7.38-65.29,33.45-77.88,66.84-7.41,19.64-9.47,42.24-23.53,57.83-18.29,20.28-49.34,20.92-76.64,20.08-27.3-.84-58.37-.12-76.57,20.24-11.4,12.75-15.02,30.89-14.1,47.97,2.43,45.22,34.34,85.65,74.92,105.75,40.58,20.1,88.36,21.9,132.77,13.06,62.22-12.38,121.39-46.4,156.95-98.93,35.57-52.53,44.57-124.1,16.11-180.8Z"/>
    <circle class="st16" cx="269.73" cy="263.28" r="59.21" transform="translate(-107.16 267.84) rotate(-45)"/>
  </g>
  <g id="Plants">
    <g>
      <path class="st6" d="M775.94,383.33c-1.1,16.28-3.61,49.73-18.92,90.03-7.25,19.09-15.29,34.22-21.45,44.68-4.98,6.09-8.78,11.48-11.49,15.57-5.42,8.19-6.69,11.5-7.4,14.55-1.16,4.95-.85,9.26-.43,12.09h-.65c-8.98-.03-17.97-.06-26.95-.1-2.13,0-25.99-.09-50.43-.17-2.01-.01-4.02-.02-6.01-.02-24.8-.09-48.41-.17-48.59-.17-.53,0-18.16-.06-28.32-.1-1.37,0-2.6,0-3.64-.01-1.04,0-1.89-.01-2.47-.01h-.91c-64.83-.22-129.65-.45-194.48-.67-56.98-.2-113.95-.39-170.93-.59-4.85-.02-25.3.2-52.56-.18-5.97-.08-10.76-.17-13.38-.22-.58-.7-1.45-1.73-2.5-2.99-15.96-19.12-30.21-36.71-34.9-43.28-12.12-16.97-23-34.92-31.07-54.19-31.29-74.73.42-168.12,69.73-209.59,15.94-9.54,34.11-17.17,52.81-18.07,19.75-.95,38.85,4.27,58.11,8.13,40.29,8.07,89.29,24.58,130.04,9.77,21.28-8.42,37.59-25.86,51.82-43.78,0,0,.59-.82,1.93-2.47,5.33-6.54,22.62-26.18,62.59-59.5,1.24-1.04,2.53-2.04,3.85-3.02.02,0,.05-.03.08-.05,0,0,9.05-5.65,17.73-10.41,7.48-4.1,167.97-38.59,245.83,65.73,41.93,56.17,37.45,122.53,32.96,189.03Z"/>
      <path class="st21" d="M785.87,357.45c-.32,59.05-15.82,102.13-19.15,111.06-10.42,28-24.44,51.77-29.62,60.26-7.98,13.09-15.56,23.69-21.5,31.49-8.98-.03-17.97-.06-26.95-.1-2.13,0-25.99-.09-50.43-.17-2.01-.01-4.02-.02-6.01-.02-24.8-.09-48.41-.17-48.59-.17-.53,0-18.16-.06-28.32-.1-1.37,0-2.6,0-3.64-.01-1.04,0-1.89-.01-2.47-.01h-.91c-3.07-17.28-9.66-36.94-23.94-54.25-13.25-16.05-18.05-20.12-37.28-34.75-15.83-12.04-28.15-33.4-27.04-53.75,1.28-23.44,18.9-42.91,25.01-65.01,2.86-10.35,9.8-42.57-5.52-75.06-9.97-21.14-25.46-33.87-34.76-40.3-11.19-10.74-22.39-21.49-33.58-32.23.54-.88,1.11-1.81,1.73-2.78,13.14-19.59,41.6-55.67,90.29-75.59,86.45-35.37,191.98-1.53,243.87,67.06,39.54,52.26,39.08,113.83,38.81,164.43Z"/>
      <g>
        <path class="st9" d="M264.87,370.65c15.9-16.99,14.93-41.87,9.5-63.24-.91-3.57-1.33-7.44-3.75-10.22-2.42-2.78-6.93-4.05-9.86-1.82-2.43,1.85-2.93,5.21-3.89,8.11-1.27,3.85-3.65,7.34-6.78,9.92-2.06,1.69-4.77,3.05-7.33,2.3-3.51-1.02-4.82-5.23-5.57-8.81-1.41-6.67-2.82-13.34-4.23-20.01-.76-3.58-1.54-7.23-3.4-10.38-1.86-3.15-5.04-5.75-8.69-5.95-3.65-.2-7.49,2.69-7.45,6.35.01,1.52.64,2.97.87,4.47.22,1.51-.12,3.3-1.46,4.03-1.35.73-3.02.04-4.33-.77-4.52-2.79-8.07-6.89-11.45-10.99-3.38-4.11-6.71-8.34-10.96-11.53-4.25-3.2-9.62-5.29-14.87-4.45-5.25.84-10.09,5.21-10.3,10.52-.22,5.33,3.88,9.79,8,13.16,6.13,5,12.98,9.11,20.28,12.16,1.32.55,2.74,1.14,3.47,2.37,1.3,2.21-.47,5.08-2.68,6.38-2.51,1.48-5.5,1.84-8.25,2.78-2.75.95-5.54,2.84-6.04,5.71-.69,3.98,3.24,7.13,6.83,8.97,7.19,3.69,15.02,6.14,23.04,7.2,2.87.38,5.86.61,8.41,1.99,2.55,1.38,4.55,4.31,3.8,7.11-.75,2.8-3.91,4.34-6.81,4.44-2.9.1-5.72-.85-8.6-1.26-5.38-.77-11.73.98-14,5.92-1.49,3.25-.83,7.17.96,10.27,1.78,3.09,4.56,5.49,7.41,7.63,9.99,7.49,21.82,12.7,34.22,14.13,12.4,1.43,23.33.16,33.9-6.48"/>
        <path class="st18" d="M256.25,358.41c-5.58-10.16-12.63-20.79-20.39-31.66-1.95-2.71-3.88-5.39-5.78-8.03-1.9-2.63-3.79-5.24-5.79-7.67-3.99-4.89-8.2-9.29-12.33-13.35-4.13-4.06-8.2-7.76-12.04-11.19-3.84-3.43-7.48-6.55-10.92-9.26-6.87-5.45-12.93-9.18-17.19-11.58-2.13-1.21-3.82-2.09-4.96-2.67-.56-.28-.99-.5-1.31-.66-.3-.15-.45-.21-.45-.21,0,0,.14.1.43.26.31.17.74.4,1.28.7,1.13.62,2.8,1.53,4.91,2.76,4.23,2.45,10.23,6.23,17.06,11.7,3.42,2.72,7.04,5.86,10.86,9.3,3.82,3.45,7.87,7.16,11.98,11.22,4.11,4.06,8.31,8.45,12.27,13.33,1.99,2.43,3.86,5.02,5.77,7.66,1.9,2.64,3.82,5.32,5.77,8.02,7.76,10.86,14.8,21.46,20.39,31.59"/>
        <path class="st18" d="M224.15,311.02s.04-.57,0-1.6c-.03-1.03-.13-2.52-.26-4.35-.27-3.67-.82-8.72-1.43-14.3-.62-5.58-1.07-10.63-1.27-14.29-.1-1.83-.17-3.32-.2-4.34-.04-1.03-.07-1.59-.11-1.6-.04,0-.07.57-.1,1.6-.04,1.03-.03,2.52.02,4.36.09,3.68.49,8.76,1.11,14.34.62,5.52,1.18,10.52,1.6,14.27.18,1.75.32,3.21.44,4.33.1,1.02.18,1.59.22,1.58Z"/>
        <path class="st18" d="M175.72,312.6s.17,0,.5-.03c.39-.05.85-.11,1.4-.18,1.22-.16,2.98-.41,5.16-.63,4.36-.49,10.41-.95,17.11-1.16,6.7-.2,12.77-.11,17.15.08,2.19.08,3.97.2,5.19.27.56.03,1.03.06,1.41.08.32.01.49,0,.5-.01,0-.02-.17-.05-.49-.1-.39-.05-.85-.11-1.41-.18-1.22-.14-2.99-.32-5.19-.45-4.39-.29-10.48-.44-17.19-.24-6.71.21-12.78.73-17.14,1.32-2.18.28-3.94.58-5.15.81-.55.11-1.01.21-1.39.29-.32.07-.48.12-.48.14Z"/>
        <path class="st18" d="M255.55,357.66s.08-.21.18-.63c.11-.48.25-1.09.42-1.84.36-1.6.83-3.92,1.37-6.8,1.09-5.76,2.35-13.75,3.62-22.59,1.28-8.84,2.47-16.84,3.46-22.61.5-2.83.9-5.14,1.2-6.83.13-.76.24-1.37.32-1.86.07-.43.09-.65.08-.66-.02,0-.08.21-.18.63-.11.48-.25,1.09-.42,1.84-.36,1.6-.83,3.92-1.37,6.8-1.09,5.76-2.35,13.75-3.63,22.6-1.28,8.84-2.47,16.84-3.46,22.6-.5,2.83-.9,5.14-1.2,6.83-.13.76-.24,1.37-.32,1.86-.07.43-.09.65-.08.65Z"/>
        <path class="st18" d="M189.4,351.49s.23.05.67.1c.5.05,1.14.11,1.93.19,1.74.16,4.15.38,7.09.65,5.98.56,14.24,1.43,23.36,2.41,9.12.98,17.39,1.8,23.39,2.25,3,.23,5.43.39,7.11.48.79.04,1.43.06,1.93.09.44.01.68.01.68,0,0-.02-.23-.05-.67-.1-.5-.05-1.14-.11-1.93-.19-1.74-.16-4.15-.38-7.09-.65-5.98-.56-14.24-1.43-23.36-2.42-9.12-.98-17.39-1.8-23.38-2.25-3-.23-5.43-.39-7.11-.48-.79-.04-1.43-.06-1.93-.09-.44-.01-.68-.01-.68,0Z"/>
      </g>
      <g>
        <rect class="st12" x="263.83" y="159.64" width="38.5" height="22.91" rx="7.04" ry="7.04"/>
        <polyline class="st12" points="287.25 181.82 296.36 189.9 297.1 181.96"/>
        <path class="st9" d="M278.07,171.42c0,1.24-1,2.24-2.24,2.24s-2.24-1-2.24-2.24,1-2.24,2.24-2.24,2.24,1,2.24,2.24Z"/>
        <path class="st9" d="M285.79,171.42c0,1.24-1,2.24-2.24,2.24s-2.24-1-2.24-2.24,1-2.24,2.24-2.24,2.24,1,2.24,2.24Z"/>
        <path class="st9" d="M293.5,171.42c0,1.24-1,2.24-2.24,2.24s-2.24-1-2.24-2.24,1-2.24,2.24-2.24,2.24,1,2.24,2.24Z"/>
      </g>
      <g>
        <rect class="st16" x="490.21" y="172.31" width="38.37" height="56.93" transform="translate(136.14 601.37) rotate(-68.53)"/>
        <path class="st12" d="M542.91,193.83s-.23.11-.68.28c-.5.18-1.16.42-1.98.71-1.78.62-4.27,1.48-7.33,2.53-6.26,2.11-14.82,4.99-24.31,8.19l-.2.07-.11-.18c-.08-.14-.17-.29-.26-.44-5.03-8.79-9.58-16.75-12.91-22.57-1.61-2.86-2.92-5.2-3.86-6.87-.43-.78-.77-1.41-1.03-1.88-.23-.43-.34-.66-.33-.67.02,0,.16.21.42.62.28.46.65,1.07,1.11,1.83.97,1.65,2.33,3.96,4,6.79,3.36,5.8,7.96,13.73,13.04,22.49.09.15.17.3.26.44l-.31-.12c9.51-3.14,18.09-5.97,24.36-8.04,3.08-.99,5.59-1.8,7.38-2.38.84-.26,1.51-.46,2.01-.62.46-.14.71-.2.71-.18Z"/>
        <path class="st12" d="M475.89,208.71c-.07-.13,5.84-3.45,13.2-7.43,7.36-3.98,13.38-7.11,13.44-6.98.07.13-5.84,3.45-13.2,7.43-7.36,3.98-13.37,7.1-13.44,6.98Z"/>
        <path class="st12" d="M520.32,200.78c.14-.04,2.16,6.37,4.52,14.31,2.36,7.95,4.17,14.42,4.03,14.46-.14.04-2.16-6.37-4.53-14.31-2.36-7.94-4.17-14.42-4.03-14.46Z"/>
      </g>
      <path class="st4" d="M716.25,558.59c0,.14-134.27.26-299.85.26s-299.88-.12-299.88-.26,134.24-.26,299.88-.26,299.85.12,299.85.26Z"/>
      <g>
        <circle class="st10" cx="418.7" cy="338.19" r="12.9"/>
        <circle class="st10" cx="463.1" cy="338.19" r="12.9"/>
        <path class="st10" d="M548.96,271.44s.25-.04.76-.05c.5-.02,1.26.05,2.23.25.98.18,2.17.6,3.47,1.3,1.29.72,2.68,1.79,3.88,3.34,1.2,1.54,2.2,3.57,2.55,5.97.13.59.11,1.22.16,1.85,0,.61.01,1.24.02,1.88.01,1.28.02,2.61.04,4,.04,5.54.09,11.92.14,19.08.07,14.31.16,31.71.26,51.74.02,5.01.04,10.18.06,15.5,0,2.66.02,5.37.03,8.11,0,1.37,0,2.75.01,4.14,0,.69,0,1.39,0,2.09-.03.75-.05,1.51-.19,2.26-.47,3-2.01,5.87-4.36,7.94-2.32,2.08-5.41,3.4-8.62,3.46-5.93.02-12.01.04-18.22.07l1.08-.98c-1.18,12.81-2.42,26.33-3.72,40.38l-.2,2.19-1.7-1.4c-15.37-12.67-31.81-26.21-48.91-40.3l.8.29c-31.39.02-65.23.03-100.22.05-6.36,0-12.67,0-18.95,0-1.57,0-3.14,0-4.7,0-.8,0-1.53.02-2.38-.02-.86-.02-1.71-.13-2.56-.3-3.38-.7-6.41-2.75-8.39-5.53-.99-1.39-1.72-2.96-2.14-4.6-.45-1.62-.48-3.44-.45-4.9,0-3.07,0-6.13,0-9.18,0-6.1,0-12.14.01-18.13.03-23.97.05-47.09.08-69.12,0-2.75,0-5.49.01-8.21,0-1.38.1-2.95.55-4.34.42-1.42,1.05-2.76,1.87-3.98,1.68-2.4,4.08-4.29,6.83-5.21,1.37-.46,2.8-.76,4.23-.76,1.37-.03,2.64,0,3.95,0,10.43.02,20.56.04,30.36.07,19.59.06,37.84.11,54.49.16,33.31.17,60.27.32,78.91.41,9.31.11,16.54.19,21.45.24,2.45.06,4.32.1,5.58.13,1.26.04,1.9.09,1.9.13s-.64.09-1.9.13c-1.26.03-3.13.07-5.58.13-4.91.06-12.14.14-21.45.24-18.64.1-45.59.24-78.91.41-16.66.05-34.9.1-54.49.16-9.79.02-19.92.04-30.36.07-1.29,0-2.64,0-3.9.02-1.2,0-2.38.27-3.52.65-2.28.77-4.27,2.36-5.66,4.35-1.37,2.04-2.07,4.42-1.99,6.99,0,2.72,0,5.45.01,8.21.02,22.03.05,45.15.08,69.12,0,5.99,0,12.04.01,18.13,0,3.05,0,6.11,0,9.18-.02,1.6.01,2.89.37,4.26.34,1.34.94,2.61,1.75,3.74,1.61,2.26,4.08,3.93,6.82,4.49.69.13,1.38.23,2.08.24.71.03,1.54,0,2.31.02,1.56,0,3.13,0,4.7,0,6.28,0,12.6,0,18.95,0,34.99.02,68.83.03,100.22.05h.45s.35.29.35.29c17.06,14.14,33.46,27.73,48.8,40.44l-1.9.79c1.35-14.04,2.65-27.56,3.88-40.36l.09-.98h.98c6.19.01,12.24.02,18.15.03,2.73-.04,5.36-1.15,7.34-2.9,2.01-1.75,3.34-4.19,3.76-6.75.13-.64.14-1.29.18-1.93,0-.7,0-1.4,0-2.09,0-1.39,0-2.77.01-4.14,0-2.74.02-5.44.03-8.11.02-5.33.04-10.5.06-15.5.1-20.03.18-37.43.26-51.74.05-7.15.1-13.53.14-19.08.01-1.39.03-2.72.04-4,0-.64.01-1.27.02-1.88-.04-.59,0-1.18-.11-1.74-.28-2.26-1.17-4.2-2.27-5.69-1.1-1.5-2.39-2.58-3.61-3.31-1.23-.72-2.35-1.18-3.3-1.41-1.88-.48-2.92-.43-2.91-.52Z"/>
        <g>
          <rect class="st10" x="258.06" y="335.65" width="221.56" height="131.85" rx="13.39" ry="13.39"/>
          <polyline class="st10" points="392.84 463.28 445.23 509.8 449.53 464.11"/>
          <circle class="st9" cx="327.12" cy="403.44" r="12.9"/>
          <circle class="st9" cx="371.52" cy="403.44" r="12.9"/>
          <circle class="st9" cx="415.92" cy="403.44" r="12.9"/>
        </g>
        <g class="st7">
          <path d="M471.36,336.22l-20.83-.61-161.02.04c13.38,13.3,32.51,20.43,51.31,22.07,18.8,1.64,37.68-1.22,56.27-4.44,18.59-3.22,37.26-6.82,56.13-6.68,3.98.03,8.1.2,11.8-1.27,3.7-1.48,6.88-5.15,6.34-9.1Z"/>
        </g>
        <circle class="st10" cx="507.5" cy="338.19" r="12.9"/>
      </g>
      <path class="st3" d="M396.33,148.51c-10.36-.07-20.31,7.39-23.15,17.35-1.46,5.13-1.18,10.59-2.11,15.85-.93,5.25-3.59,10.77-8.58,12.66-3.25,1.23-6.97.72-10.2,2.01-3,1.2-5.31,3.99-5.92,7.16s.49,6.62,2.83,8.85c-3.91,3.38-4.99,9.6-2.45,14.09,2.54,4.5,8.43,6.78,13.34,5.17-1.85,2.94-1.24,7.02.93,9.74,2.17,2.72,5.62,4.18,9.08,4.58,3.46.39,6.95-.18,10.34-.93,7.57-1.68,15.18-4.38,20.88-9.64,6.25-5.78,9.56-14.04,12.07-22.18,4.79-15.55,7.34-32.3,3.42-48.09"/>
      <g>
        <g>
          <path class="st15" d="M361.48,235.2l-8.42,18.43-18.45-40.69c-.87-3.29-1.84-7-2.04-7.74-.31-1.13-.4-2.31-.31-3.48.11-1.42.34-3.3.78-4.29.55-1.23-.68-2.48-1.74-1.88-1.06.6-2.65,3.94-2.6,8.27.05,4.32-14.82-5.93-17.24-3.5l1.8,14.3c1.63,1.49,6.23,5.6,8.79,7.87l17.4,43.3c1.63,4.45,5.29,7.85,9.84,9.17,6.61,1.9,13.66-.97,17.05-6.96l11.21-19.77-16.06-13.03Z"/>
          <g>
            <path class="st3" d="M322.39,187.21c.29-.11.61.06.72.39l9.57,28.4c.18.53-.02,1.13-.45,1.38l-11.37,6.38c-.47.26-1.03.01-1.24-.55l-10.76-29.45c-.21-.58.04-1.24.55-1.45l12.98-5.12Z"/>
            <polygon class="st19" points="322.7 189.26 331.5 214.61 320.25 220.6 310.58 194.08 322.7 189.26"/>
          </g>
          <path class="st12" d="M312.73,195.8c.34.86.9,2.26,1.25,3.13.17.43.66.63,1.08.45l5.97-2.51,2.07.3-.58-1.1.68-.27c.43-.17.63-.66.45-1.09l-1.22-2.85c-.18-.41-.65-.61-1.07-.44l-8.18,3.3c-.42.17-.62.65-.46,1.07Z"/>
          <path class="st12" d="M317.84,210.77c.34.86.9,2.26,1.25,3.13.17.43.66.63,1.08.45l5.97-2.51,2.07.3-.58-1.1.68-.27c.43-.17.63-.66.45-1.09l-1.22-2.85c-.18-.41-.65-.61-1.07-.44l-8.18,3.3c-.42.17-.62.65-.46,1.07Z"/>
          <path class="st12" d="M324.76,199.34c.38.85.98,2.23,1.36,3.09.18.42-.01.91-.44,1.09l-5.98,2.5-1.23,1.69-.38-1.18-.67.29c-.42.19-.92-.01-1.09-.44l-1.17-2.87c-.17-.41.02-.89.43-1.07l8.09-3.52c.42-.18.9,0,1.08.42Z"/>
        </g>
        <path class="st15" d="M311.45,201.02c1.94.32,4.3.51,6.24.83.55.09,1.12.19,1.57.52.44.33.71.98.44,1.46-.31.55-1.07.6-1.7.58-1.42-.05-3,.25-4.42.21,1.82.16,3.5.31,5.53.55.84.1,1.7.81,1.71,1.65.01.73-.69,1.31-1.41,1.42-.72.11-2.24.03-2.24.03,0,0-2.93.04-3.05.42,1.83-.01,4.24.38,6.06.54.5.04.73.73.85,1.21.12.49-.07,1.08-.53,1.28-.22.1-.48.09-.72.08-2.36-.07-3.6.08-5.96,0"/>
        <path class="st8" d="M355.34,266.76c-.17-.02.51-3.11-.23-6.85-.69-3.75-2.47-6.37-2.32-6.45.05-.03.56.57,1.17,1.68.61,1.11,1.29,2.76,1.66,4.67.36,1.91.35,3.69.19,4.95-.16,1.26-.41,2.01-.46,2Z"/>
        <path class="st8" d="M320.6,209.51c-.02.14-1.87.04-4.13-.22-1.13-.11-2.17-.34-2.86-.34-.71,0-1.02.36-1.08.31-.02-.02.01-.14.18-.3.16-.16.48-.32.88-.37.81-.1,1.81.08,2.95.19,2.27.26,4.09.6,4.07.74Z"/>
        <path class="st8" d="M319.95,205.36c-.02.14-1.85.05-4.09-.21-1.12-.1-2.15-.35-2.82-.32-.69.02-.99.41-1.06.35-.07,0,.18-.58,1.01-.72.39-.08.87-.04,1.34,0,.53.05,1.04.11,1.58.16,2.24.26,4.04.59,4.02.73Z"/>
      </g>
      <path class="st3" d="M377.01,291.03s-60.86-4.59-78.47,9.19c-17.61,13.78-9.19,35.98-9.19,35.98h99.52l3.83-45.9-15.69.73Z"/>
      <path class="st11" d="M388.46,322.65s-.31,0-.89-.07c-.58-.06-1.44-.15-2.53-.3-2.2-.28-5.37-.73-9.28-1.39-7.81-1.31-18.55-3.57-30.16-6.98-5.8-1.72-11.29-3.45-16.36-4.71-5.08-1.23-9.73-2.02-13.68-2.18-3.94-.17-7.14.12-9.31.54-1.1.14-1.92.41-2.49.51-.57.12-.87.18-.88.16,0-.02.29-.11.85-.27.57-.13,1.38-.44,2.48-.61,2.17-.49,5.39-.83,9.36-.71,3.98.11,8.67.87,13.78,2.08,5.1,1.23,10.61,2.96,16.4,4.67,11.59,3.4,22.29,5.71,30.08,7.11,3.89.71,7.06,1.22,9.25,1.55,1.06.17,1.9.3,2.52.39.58.09.88.15.87.17Z"/>
      <path class="st11" d="M331.02,308.93c-.12.12-2.18-2.13-5.47-3.83-3.27-1.73-6.29-2.15-6.26-2.32,0-.06.77-.04,1.98.21,1.21.25,2.85.77,4.52,1.64,1.67.88,3.03,1.93,3.92,2.78.89.85,1.35,1.47,1.3,1.51Z"/>
      <path class="st3" d="M421.06,285.3s-55.67,1.51-73.28,15.29c-17.61,13.78-9.19,35.98-9.19,35.98l104.4,1.62v-13.46l-13.54-1.47-.1-.61c5.26-5.75,1.26-25.79-7.49-36.37l-.81-.98Z"/>
      <path class="st11" d="M436.69,324.12s-.31,0-.89-.07c-.58-.06-1.44-.15-2.53-.3-2.2-.28-5.37-.73-9.28-1.39-7.81-1.31-18.55-3.57-30.16-6.98-5.8-1.72-11.29-3.45-16.36-4.71-5.08-1.23-9.73-2.02-13.68-2.18-3.94-.17-7.14.12-9.31.54-1.1.14-1.92.41-2.49.51-.57.12-.87.18-.88.16,0-.02.29-.11.85-.27.57-.13,1.38-.44,2.48-.61,2.17-.49,5.39-.83,9.36-.71,3.98.11,8.67.87,13.78,2.08,5.1,1.23,10.61,2.96,16.4,4.67,11.59,3.4,22.29,5.71,30.08,7.11,3.89.71,7.06,1.22,9.25,1.55,1.06.17,1.9.3,2.52.39.58.09.88.15.87.17Z"/>
      <path class="st11" d="M379.25,310.41c-.12.12-2.18-2.13-5.47-3.83-3.27-1.73-6.29-2.15-6.26-2.32,0-.06.77-.04,1.98.21,1.21.25,2.85.77,4.52,1.64,1.67.88,3.03,1.93,3.92,2.78.89.85,1.35,1.47,1.3,1.51Z"/>
      <path class="st11" d="M392.28,287.62s-.3.07-.86.14c-.61.09-1.44.2-2.47.35-2.15.32-5.24.84-9.05,1.61-3.8.76-8.32,1.74-13.31,2.93-4.96,1.21-10.34,3.08-15.37,6.15-2.52,1.53-4.8,3.31-6.7,5.32-1.91,2.01-3.43,4.24-4.62,6.48-2.37,4.52-3.24,9.16-3.25,13.01-.04,3.87.69,6.96,1.32,9.02.32,1.03.62,1.82.83,2.35.21.53.32.81.3.82-.02,0-.15-.26-.4-.78-.24-.52-.57-1.3-.92-2.33-.69-2.06-1.48-5.16-1.5-9.08-.04-3.89.8-8.62,3.19-13.23,1.2-2.29,2.74-4.56,4.68-6.61,1.93-2.06,4.25-3.87,6.8-5.42,5.1-3.11,10.53-4.98,15.53-6.17,5-1.17,9.53-2.11,13.35-2.83,3.82-.72,6.93-1.18,9.09-1.44,1.08-.13,1.92-.21,2.49-.25.57-.04.87-.06.87-.04Z"/>
      <path class="st12" d="M443,325.39l9.53-.6,6.3,3.67,12.09,1.32c5.79.3,6.71,6.53,3.15,6.53-2.83,0-19.76,1.1-19.76,1.1l-11.32.3v-12.32Z"/>
      <g>
        <path class="st0" d="M379.83,209.54s-11.87,26.09-11.17,30.52c.7,4.43,4.13,22.1,4.13,22.1l2.51,28.76s44.83-5.44,45.76-5.44-1.4-23.79-1.4-23.79l6.83-45.72s-3.13-6.23-17.25-8.38c-8.48-1.3-29.41,1.96-29.41,1.96Z"/>
        <path class="st0" d="M412.57,244.7c.54,3.85,1.56,8.41,4.23,13.28.85,1.56,1.66,3.73,3.08,4.8,2.22,1.67,5.41.09,7.43-1.82,2.02-1.91,4.04-4.33,6.82-4.43,1.77-.06,3.4.86,5.13,1.22,1.73.36,3.97-.19,4.38-1.91.23-.99-.24-1.99-.69-2.9-4.32-8.75-7.41-17.02-9.68-26.51-.45-1.9-2.55-5.79-3.51-7.48-.96-1.69-3.58-4.14-6.13-6.2"/>
        <path class="st0" d="M388.26,207.81c-12.33.44-21.58,8.59-24.22,14.47-3.09,6.9-5.49,15.24-9.11,21.88-.71,1.3-1.56,2.57-1.87,4.03-.31,1.45.08,3.19,1.36,3.94,1.86,1.1,4.55-.33,6.27.98.94.72,1.22,2.03,2.03,2.9.99,1.07,2.57,1.29,4.02,1.45,2.78.3,5.56.6,8.33.9"/>
        <path class="st3" d="M409.83,233.27s-.22-.33-.48-.99c-.26-.66-.56-1.65-.74-2.91-.38-2.49-.11-6.22,1.91-9.61,2.03-3.39,5.18-5.39,7.56-6.23,1.2-.44,2.21-.65,2.91-.73.7-.08,1.1-.08,1.1-.05.02.11-1.57.17-3.88,1.12-2.29.91-5.29,2.9-7.25,6.16-1.94,3.27-2.27,6.85-1.99,9.3.27,2.48.96,3.91.86,3.94Z"/>
        <path class="st3" d="M375.91,223.05s-.2.48-.64,1.3c-.23.41-.49.91-.77,1.51-.28.6-.63,1.26-.94,2.03-.67,1.52-1.34,3.38-1.95,5.48-.58,2.11-1.08,4.47-1.37,6.98-.27,2.51-.31,4.93-.22,7.12.13,2.19.36,4.15.68,5.78.12.82.32,1.55.46,2.19.13.65.28,1.19.41,1.64.25.9.37,1.4.33,1.41s-.22-.47-.53-1.35c-.16-.44-.34-.98-.5-1.63-.17-.64-.39-1.37-.54-2.19-.37-1.63-.64-3.61-.8-5.83-.12-2.21-.09-4.66.18-7.2.3-2.54.82-4.93,1.43-7.06.64-2.12,1.35-3.99,2.08-5.5.33-.77.71-1.43,1.01-2.02.3-.59.6-1.08.85-1.48.5-.79.78-1.22.81-1.2Z"/>
        <path class="st1" d="M442.91,252.31s-.02.11-.1.29c-.1.17-.26.44-.57.68-.6.5-1.76.87-3.14.7-1.4-.16-2.85-.96-4.54-1.29-1.7-.38-3.57.4-5.13,1.66-1.57,1.25-2.85,2.78-4.36,3.81-.74.51-1.53.94-2.34,1.11-.8.17-1.56.18-2.24.13-1.37-.1-2.45-.49-3.08-.93-.32-.22-.53-.44-.65-.6-.11-.17-.16-.26-.15-.27.04-.03.26.34.9.7.63.36,1.68.69,3,.73.66.02,1.38-.02,2.13-.19.73-.17,1.46-.58,2.16-1.08,1.43-1,2.68-2.52,4.31-3.83.82-.65,1.71-1.2,2.66-1.52.95-.34,1.97-.39,2.87-.2,1.8.39,3.2,1.22,4.5,1.4,1.29.2,2.38-.09,2.96-.5.6-.42.75-.84.8-.81Z"/>
        <path class="st1" d="M440.04,246.46s0,.1-.06.28c-.07.17-.22.43-.5.67-.54.49-1.64.87-2.92.61-1.27-.22-2.6-1.05-4.18-1.13-1.59-.08-3.31.6-4.85,1.64-1.56,1.04-2.9,2.29-4.29,3.22-1.37.96-2.83,1.56-4.1,1.7-1.28.16-2.33-.07-2.97-.38-.65-.31-.92-.61-.9-.62.03-.04.34.2.98.44.64.24,1.64.41,2.84.21,1.21-.18,2.56-.78,3.88-1.73,1.34-.93,2.66-2.18,4.27-3.26,1.6-1.07,3.43-1.8,5.17-1.68.87.04,1.65.33,2.33.59.69.27,1.31.52,1.9.66,1.17.28,2.19-.01,2.72-.41.54-.4.64-.82.69-.79Z"/>
        <path class="st1" d="M369.98,254.07s-.19.26-.72.38c-.52.12-1.37.03-2.14-.58-.78-.59-1.33-1.62-1.86-2.69-.54-1.04-1.25-2.23-2.54-2.55-1.28-.33-2.59,0-3.78.2-1.19.21-2.38.26-3.28-.15-.89-.39-1.41-1.04-1.59-1.55-.19-.51-.09-.82-.07-.81.05,0,.03.29.26.73.21.43.72.98,1.54,1.29.81.32,1.89.25,3.06.02,1.16-.21,2.53-.6,4-.23.73.19,1.37.64,1.81,1.17.45.53.76,1.11,1.03,1.66.52,1.09,1,2.05,1.67,2.62.66.57,1.41.71,1.88.66.49-.05.73-.23.75-.18Z"/>
        <path class="st1" d="M368.47,248.18s-.21.11-.6,0c-.38-.11-.86-.48-1.24-1.06-.38-.55-.68-1.33-1.35-1.74-.66-.43-1.63-.34-2.61-.18-.99.18-2.04.22-2.92-.01-.89-.21-1.63-.58-2.19-.98-1.12-.8-1.5-1.59-1.46-1.61.07-.06.55.63,1.66,1.3,1.09.69,2.86,1.22,4.83.78.98-.15,2.09-.28,2.95.29.83.58,1.07,1.42,1.4,1.96.31.55.69.91,1.01,1.06.31.16.52.15.53.19Z"/>
        <path class="st1" d="M415.46,253.34s-.63-.12-1.76-.39c-1.13-.26-2.77-.65-4.8-1.02-1.02-.19-2.14-.38-3.34-.52-1.2-.13-2.51-.28-3.84-.15-1.33.14-2.67.65-3.99,1.31-1.32.66-2.65,1.47-4.09,2.17-1.44.7-2.97,1.23-4.51,1.31-1.53.09-3-.16-4.34-.48-2.69-.67-5.01-1.52-7.06-1.72-2.04-.25-3.72.03-4.78.45-1.06.43-1.55.87-1.59.82-.01-.01.11-.12.35-.32.24-.19.63-.44,1.16-.69,1.07-.49,2.8-.84,4.9-.63,2.11.15,4.49.99,7.13,1.62,1.32.3,2.74.53,4.2.44,1.46-.08,2.91-.58,4.32-1.27,1.41-.69,2.74-1.49,4.09-2.16,1.35-.66,2.75-1.2,4.17-1.33,1.41-.12,2.72.05,3.94.2,1.22.16,2.34.38,3.36.59,2.04.42,3.67.86,4.79,1.19.56.16.99.3,1.28.4.29.1.44.16.43.18Z"/>
        <path class="st1" d="M416.49,258.36s-.6-.24-1.66-.69c-1.07-.44-2.61-1.08-4.58-1.68-.98-.3-2.08-.59-3.26-.73-1.18-.12-2.45.04-3.72.48-2.55.87-4.97,2.75-7.96,3.92-1.5.59-3.09.82-4.6.8-1.51-.02-2.95-.23-4.3-.47-2.7-.51-5.09-1.04-7.14-1.1-2.05-.1-3.7.22-4.77.61-1.08.39-1.61.76-1.64.71,0-.02.12-.11.37-.28.25-.17.65-.4,1.19-.62,1.07-.46,2.76-.84,4.86-.79,2.09.02,4.54.52,7.22,1,2.66.45,5.73.81,8.64-.35,2.89-1.13,5.34-3,7.99-3.89,1.32-.44,2.68-.61,3.92-.46,1.23.17,2.33.49,3.32.81,1.97.65,3.51,1.34,4.55,1.84.52.25.92.46,1.19.61.26.15.4.24.39.26Z"/>
        <path class="st3" d="M403.13,256.58s-.25.08-.73.12c-.47.05-1.16.04-2-.05-.85-.08-1.84-.32-2.9-.69-1.05-.4-2.17-.94-3.24-1.68-1.06-.75-1.97-1.61-2.71-2.46-.72-.87-1.28-1.72-1.66-2.48-.38-.76-.63-1.4-.75-1.86-.12-.46-.18-.71-.14-.72.09-.03.39.97,1.21,2.4.4.72.98,1.52,1.69,2.34.73.8,1.61,1.62,2.64,2.34,1.04.71,2.11,1.25,3.12,1.66,1.02.38,1.97.64,2.78.77,1.63.27,2.67.2,2.67.3Z"/>
        <g class="st7">
          <path d="M389.05,247.84c.68,3.72,2.1,7.43,4.82,10.07,2.71,2.63,6.89,3.97,10.42,2.59.74-.29,1.51-.78,1.68-1.55.2-.9-.51-1.78-1.36-2.14-.85-.36-1.8-.33-2.71-.38-5.23-.29-10.21-3.51-12.61-8.16"/>
        </g>
        <path class="st3" d="M418.37,262.68s-.19-.33-.43-.96c-.25-.63-.58-1.55-.98-2.69-.8-2.28-1.84-5.46-2.87-9-1.03-3.54-1.87-6.78-2.43-9.13-.28-1.18-.49-2.13-.62-2.8-.13-.66-.19-1.03-.15-1.04s.16.35.35.99c.22.76.47,1.68.78,2.75.65,2.33,1.54,5.54,2.57,9.08,1.03,3.54,2.01,6.72,2.72,9.03.32,1.07.6,1.98.83,2.74.19.65.28,1.01.24,1.03Z"/>
      </g>
      <g>
        <path class="st15" d="M373.23,291.31s8.65-9.26,16.2-11.08c7.55-1.82,34.65-11.38,34.65-11.38l-1.71-5.39h0c1.72-.11,3.32-1.06,4.55-2.28l1.75-1.75c2.38-2.6,5.25-4.03,9.41-2.59l2.62.78,2.74,7.98c2.69,7.95-2.52,16.38-10.83,17.52l-59.37,8.18Z"/>
        <path class="st8" d="M435.3,270c-.07.15-2.37-1.02-5.47-1.33-3.1-.34-5.59.33-5.63.16-.06-.11,2.46-1.04,5.68-.68,3.22.32,5.5,1.75,5.42,1.85Z"/>
      </g>
      <path class="st3" d="M374.53,164.73c-.78-12.53,15.64-21.38,26.8-18.23,10.49,2.96,14.96,8.18,16.69,15.2,1.73,7.02,1.64,14.62-1.11,21.31-1.36,3.3-3.8,6.65-7.34,7.06"/>
      <path class="st15" d="M408.02,157.02c1.84.19,3.23,1.77,3.19,3.62h0l-2.02,48.15c-.08,5.69-8.38,8.9-14.47,8.77h0c-6.15-.13-6.35-3.14-6.44-8.55-.15-9.04-.15-12.43-.15-12.38,0,0-7.77-1.29-9.38-11.43-.8-5.04-.55-13.3-.12-20.06.38-6.08,4.41-13.54,10.47-12.9l18.92,4.78Z"/>
      <path class="st3" d="M382.26,174.7c-.02.69.54,1.27,1.25,1.31.71.04,1.32-.49,1.34-1.17.02-.69-.54-1.27-1.25-1.31-.72-.04-1.32.49-1.34,1.17Z"/>
      <path class="st3" d="M381.42,172.44c.16.17,1.15-.56,2.54-.56,1.4-.02,2.42.7,2.58.53.07-.08-.09-.38-.54-.71-.44-.32-1.19-.64-2.06-.64-.87,0-1.6.33-2.03.65-.43.33-.58.64-.5.71Z"/>
      <path class="st3" d="M392.93,174.7c-.02.69.54,1.27,1.25,1.31.71.04,1.32-.49,1.34-1.17.02-.69-.54-1.27-1.25-1.31-.72-.04-1.32.49-1.34,1.17Z"/>
      <path class="st3" d="M392.17,172.7c.16.17,1.15-.56,2.55-.56,1.4-.02,2.42.7,2.58.53.07-.08-.09-.38-.54-.71-.44-.32-1.19-.64-2.06-.64-.87,0-1.6.33-2.03.65-.43.33-.58.64-.5.71Z"/>
      <path class="st8" d="M388.13,196.62s6.82.44,13.57-3.62c0,0-3.29,6.96-13.44,6.01l-.14-2.39Z"/>
      <path class="st3" d="M391.54,168.25c.14.38,1.53.2,3.18.4,1.65.16,2.97.65,3.19.3.1-.16-.13-.52-.67-.89-.53-.37-1.38-.72-2.36-.83-.99-.11-1.89.05-2.48.29-.6.24-.91.54-.85.72Z"/>
      <path class="st3" d="M380.93,168.39c.25.32,1.21-.01,2.37-.03,1.16-.06,2.14.21,2.37-.12.1-.16-.06-.48-.48-.78-.42-.3-1.13-.54-1.93-.52-.8.03-1.49.31-1.89.64-.41.33-.54.65-.44.81Z"/>
      <path class="st3" d="M394.15,148.86c-3.69.12-6.5,1.25-9.74,3.02-3.24,1.77-5.95,4.7-6.95,8.26-.21.76-.33,1.62.08,2.28,1.24,2,3.33-.33,4.93.19.74.24,1.42.68,2.19.81,1.1.19,2.19-.29,3.23-.72.53-.22,1.08-.43,1.66-.44,1.74-.03,3.07,1.74,4.81,1.9,1.68.16,3.42-1.22,4.93-.49,1.2.58,1.46,2.09,2.4,2.96,1.03.95,2.52,1.55,3.91,1.1-.24,1.51-.47,3.1.07,4.53.54,1.43,3.02,32.46,4.47,31.96,1.4-.48,1.05-32.01,1.38-33.46.63-2.79,1.18-5.63,1.09-8.49-.09-2.86-.85-5.77-2.61-8.03-1.82-2.34-4.57-3.82-7.43-4.58-2.86-.76-5.86-.84-8.82-.8"/>
      <path class="st3" d="M414.44,199.11s-.12.08-.36.18c-.24.1-.61.2-1.11.27-.98.13-2.49.01-4.07-.85-1.59-.83-3.11-2.52-3.92-4.74-.85-2.21-1.03-4.85-.79-7.52.24-2.68.73-5.17.95-7.46.24-2.29.35-4.36.39-6.1.04-1.74.02-3.15,0-4.13-.02-.98-.03-1.52,0-1.52.03,0,.11.53.19,1.51.08.97.16,2.39.17,4.14,0,1.75-.06,3.84-.28,6.15-.2,2.31-.67,4.82-.91,7.45-.24,2.63-.08,5.18.72,7.31.76,2.14,2.16,3.75,3.65,4.59,1.49.86,2.92,1.03,3.87.97.96-.08,1.47-.3,1.48-.25Z"/>
      <g>
        <path class="st13" d="M230.61,493.88c.89-3.07,2.78-6.03,5.71-7.3,3.05-1.31,6.58-.57,9.7.57,3.12,1.13,6.19,2.65,9.5,2.86,3.31.2,7.06-1.37,8.05-4.54.93-2.98-.86-6.16-3.11-8.32-4.73-4.55-11.83-6.48-18.21-4.95-6.38,1.53-11.83,6.47-13.98,12.67"/>
        <path class="st5" d="M204.35,507.19c-4.86-4.62-4.62-12.66-2.19-18.92s7.72-11.06,13.63-14.22c11.46-6.13,25.79-6.6,37.63-1.22-5.82.19-11.44,3.49-14.44,8.48-2.67,4.43-3.26,9.8-5.46,14.47-2.45,5.21-6.95,9.41-12.31,11.51-5.36,2.1-11.52,2.06-16.86-.11"/>
        <path class="st5" d="M202.02,479.44c-5.38-6.36-6.1-16.56-5.31-24.85.79-8.29,2.71-16.64,1.41-24.86-.77-4.87-2.67-9.53-3.3-14.42-.64-4.89.27-10.43,4.06-13.58,4.36-3.63,11.22-2.77,15.75.63,4.53,3.41,7.16,8.76,9.08,14.1,4.22,11.73,5.76,24.73,2.3,36.7-3.46,11.97-11.59,22.67-23.52,26.28"/>
        <path class="st13" d="M199.43,531.58s-.03-.25-.03-.73c0-.48,0-1.19.03-2.1.06-1.82.24-4.46.64-7.7.41-3.24,1.05-7.08,2.06-11.28,1-4.21,2.72-8.7,5.14-13.06,2.44-4.37,5.41-8.14,8.41-11.24,3.01-3.11,6.1-5.52,8.82-7.33,1.35-.93,2.65-1.63,3.77-2.29,1.15-.6,2.15-1.09,2.98-1.49.8-.34,1.45-.6,1.94-.81.45-.18.68-.27.69-.25,0,.02-.22.14-.65.35-.48.23-1.11.52-1.89.89-.81.42-1.79.94-2.92,1.56-1.1.67-2.38,1.4-3.71,2.34-2.68,1.83-5.71,4.25-8.68,7.35-2.96,3.1-5.89,6.84-8.3,11.16-4.95,8.65-6.31,17.75-7.3,24.13-.45,3.22-.68,5.85-.8,7.66-.05.87-.1,1.56-.13,2.09-.03.48-.06.73-.08.73Z"/>
        <g>
          <path class="st13" d="M152.99,454.37c-9.96,6.01-9.93,11.48-8.27,16.64,1.66,5.16,7.78,8.75,12.85,6.82,2.87-1.09,4.94-3.58,6.71-6.09,1.77-2.5,3.44-5.18,5.92-6.98,2.48-1.8,6.09-2.48,8.58-.7"/>
          <path class="st5" d="M145.54,460.96c2.6-3.6,9.04-4.64,13.1-2.85s7.04,5.36,9.7,8.91,5.26,7.31,8.95,9.78c3.69,2.47,8.84,3.37,12.52.88,2.42-1.64,3.82-4.48,4.25-7.37s.02-5.83-.58-8.69c-.88-4.18-2.31-8.54-5.66-11.2-3.73-2.96-8.9-3.1-13.65-2.94-5.46.18-10.99.59-16.11,2.48-5.12,1.89-10.35,5.98-12.52,10.98"/>
          <path class="st13" d="M191.15,523.6s-.04-.3-.07-.86c-.02-.61-.05-1.44-.09-2.47-.07-2.2-.16-5.29-.27-9.09-.12-3.84-.28-8.41-.56-13.47-.29-5.07-.66-10.64-1.43-16.43-.39-2.89-.85-5.72-1.65-8.34-.81-2.62-1.88-5.06-3.05-7.3-2.33-4.49-5.25-8.06-8.04-10.66-2.82-2.58-5.52-4.16-7.44-5.09-.96-.48-1.73-.78-2.26-.98-.52-.21-.8-.33-.79-.34s.29.07.83.25c.54.17,1.33.44,2.31.9,1.96.87,4.72,2.42,7.61,5,2.86,2.59,5.84,6.18,8.22,10.71,1.19,2.26,2.29,4.71,3.11,7.37.82,2.67,1.28,5.51,1.68,8.42.77,5.82,1.13,11.4,1.39,16.48.25,5.08.37,9.65.45,13.49.07,3.84.1,6.95.11,9.1,0,1.04,0,1.86,0,2.47,0,.57-.02.86-.04.86Z"/>
        </g>
        <path class="st13" d="M194.74,528.11s-.57-1.48-1.11-4.28c-.52-2.79-.92-6.94-.47-12.02.42-5.08,1.72-11.05,3.79-17.45,2.04-6.41,4.82-13.27,7.19-20.63,1.18-3.69,2.17-7.33,2.86-10.91.69-3.58,1.13-7.07,1.41-10.41.56-6.68.48-12.74.33-17.8-.17-5.07-.43-9.17-.6-12.01-.08-1.39-.14-2.48-.19-3.27-.01-.35-.03-.63-.04-.85,0-.19,0-.29,0-.29,0,0,.02.1.05.29.02.22.05.5.09.85.07.78.16,1.87.28,3.26.23,2.83.55,6.93.76,12.01.21,5.08.32,11.14-.21,17.86-.27,3.35-.7,6.87-1.39,10.47-.68,3.6-1.68,7.27-2.86,10.97-2.38,7.39-5.17,14.24-7.23,20.62-2.09,6.37-3.41,12.29-3.88,17.33-.49,5.05-.16,9.16.3,11.95.24,1.4.46,2.48.66,3.2.08.34.15.61.2.83.04.19.06.28.05.29Z"/>
        <polygon class="st13" points="219.43 532.61 172.66 532.61 171.59 523.6 219.43 523.6 219.43 532.61"/>
        <polygon class="st13" points="177.68 531.58 183.53 558.59 208.94 558.59 214.41 531.58 177.68 531.58"/>
        <path class="st5" d="M219.43,532.61c0,.14-10.28.23-22.97.2-12.69-.04-22.97-.18-22.97-.32,0-.14,10.28-.23,22.97-.2,12.68.04,22.96.18,22.96.32Z"/>
        <path class="st5" d="M211.41,545.94c-.07.1-1.39-1.25-4.13-2.34-1.36-.54-3.07-.95-5-1-1.93-.06-4.02.4-6.15,1.13-2.13.72-4.12,1.56-6.07,2.02-1.95.42-3.77.39-5.25.15-1.48-.24-2.63-.68-3.37-1.08-.36-.21-.64-.38-.81-.52-.17-.13-.26-.21-.25-.23.04-.09,1.54,1.11,4.48,1.46,1.45.18,3.22.18,5.09-.25,1.87-.47,3.86-1.32,6.01-2.05,2.14-.74,4.33-1.21,6.32-1.12,1.99.07,3.75.54,5.13,1.13,1.39.58,2.39,1.28,3.05,1.79.33.26.57.48.72.63.16.15.23.24.22.25Z"/>
        <path class="st9" d="M211.05,547.74c-.07.1-1.34-1.21-3.97-2.31-1.3-.54-2.96-.95-4.82-.99-1.86-.05-3.89.37-5.94,1.07-2.06.69-3.99,1.49-5.84,1.98-1.85.5-3.59.68-5.05.56-1.46-.1-2.59-.52-3.3-.9-.35-.2-.62-.37-.78-.5-.17-.13-.25-.21-.24-.22.03-.04.39.22,1.11.54.72.31,1.83.66,3.24.71,1.41.07,3.1-.14,4.89-.65,1.8-.51,3.72-1.32,5.81-2.01,2.08-.71,4.19-1.14,6.12-1.06,1.93.06,3.63.53,4.95,1.13,1.33.58,2.29,1.28,2.92,1.78.31.25.54.47.69.62.15.15.22.23.21.25Z"/>
        <path class="st9" d="M211.87,544.15c-.06.09-1.44-1.28-4.24-2.47-1.39-.59-3.14-1.11-5.13-1.22-1.99-.14-4.15.37-6.34,1.12-2.2.74-4.25,1.63-6.28,2.05-2.03.37-3.9.25-5.42,0-1.52-.27-2.71-.71-3.48-1.11-.38-.21-.67-.38-.84-.53-.18-.14-.27-.22-.26-.23.03-.04.42.23,1.19.58.77.34,1.95.72,3.45.93,1.49.2,3.32.27,5.27-.11,1.93-.42,3.99-1.32,6.21-2.07,2.21-.76,4.47-1.28,6.54-1.11,2.06.15,3.84.72,5.24,1.37,1.41.64,2.44,1.36,3.12,1.89.34.27.59.49.75.65.16.16.24.25.23.26Z"/>
      </g>
      <g>
        <path class="st20" d="M643.43,491.99c-3.1,4.43-9.13,2.96-11.93.26-2.8-2.71-3.98-6.63-5.05-10.36-2.46-8.54-4.94-17.5-3.11-26.2.55-2.6,1.52-5.19,3.35-7.12,1.83-1.93,4.64-3.08,7.21-2.4,3.04.8,4.93,3.78,6.3,6.61,4.02,8.33,6.14,17.56,6.17,26.81.02,4.32-.49,8.85-2.93,12.41"/>
        <g class="st14">
          <path d="M643.43,491.99c-3.1,4.43-9.13,2.96-11.93.26-2.8-2.71-3.98-6.63-5.05-10.36-2.46-8.54-4.94-17.5-3.11-26.2.55-2.6,1.52-5.19,3.35-7.12,1.83-1.93,4.64-3.08,7.21-2.4,3.04.8,4.93,3.78,6.3,6.61,4.02,8.33,6.14,17.56,6.17,26.81.02,4.32-.49,8.85-2.93,12.41"/>
        </g>
        <path class="st20" d="M631.8,514.44c-5.07-2.62-11.05-2.96-16.68-2.03-3.03.5-6.18,1.41-8.24,3.68-2.06,2.27-2.45,6.27-.09,8.23,1.41,1.16,3.37,1.34,5.2,1.32,4.41-.05,9.3-.83,12.83,1.83,2.01,1.51,3.35,4.03,5.75,4.78,2.35.73,5-.66,6.25-2.78,1.25-2.12,1.29-4.78.71-7.17,0,0-.61-5.21-5.72-7.85Z"/>
        <path class="st20" d="M651.95,498.35c-3.37-4-4.01-9.83-2.51-14.84,1.5-5.01,4.89-9.27,8.79-12.75,4.58-4.08,9.96-7.25,15.74-9.29,2.28-.8,4.68-1.43,7.08-1.2,2.4.23,4.82,1.46,5.94,3.59,1.66,3.16.07,6.99-1.65,10.12-3.03,5.51-6.49,10.78-10.34,15.74-3.1,3.99-6.65,7.94-11.37,9.74-4.72,1.81-9.63,1.59-12.13-1.68"/>
        <path class="st2" d="M643.64,558.85c-.06,0-.15-.71-.28-2.01-.14-1.47-.32-3.31-.54-5.5-.26-2.31-.59-5.06-1.24-8.06-.64-2.99-1.64-6.23-2.93-9.51-1.33-3.27-2.96-6.23-4.86-8.61-1.89-2.38-4.08-4.11-6.14-5.11-2.06-1.02-3.9-1.43-5.17-1.61-1.28-.13-2-.23-2-.29s.72-.07,2.04-.03c1.31.09,3.23.42,5.39,1.4,2.17.96,4.5,2.72,6.48,5.15,1.99,2.42,3.68,5.46,5.04,8.78,1.31,3.34,2.3,6.62,2.91,9.67.61,3.05.89,5.83,1.07,8.16.17,2.33.24,4.22.27,5.53.03,1.31.01,2.03-.04,2.03Z"/>
        <path class="st2" d="M643.26,554.62s-.05-.32-.05-.93c0-.7,0-1.59,0-2.67,0-2.32,0-5.67-.12-9.82-.21-8.29-.92-19.73-2.3-32.31-1.39-12.58-3.23-23.9-4.91-32.01-.4-2.03-.8-3.87-1.17-5.47-.36-1.61-.66-2.99-.96-4.11-.25-1.06-.46-1.92-.62-2.6-.13-.6-.19-.91-.16-.92.03,0,.14.29.32.88.2.67.46,1.52.78,2.56.34,1.11.7,2.49,1.1,4.09.42,1.6.86,3.42,1.29,5.46,1.83,8.11,3.77,19.44,5.16,32.04,1.38,12.6,2,24.08,2.06,32.39.05,4.15-.04,7.52-.14,9.84-.07,1.09-.12,1.97-.16,2.67-.05.61-.08.93-.11.93Z"/>
        <path class="st2" d="M643.2,532.49c-.06,0-.05-.99.02-2.79.1-1.79.35-4.39.85-7.56.54-3.17,1.28-6.93,2.46-11.02,1.12-4.1,2.65-8.53,4.61-13.04,3.82-9.07,9.01-16.48,13.53-21.07,1.06-1.22,2.24-2.1,3.18-2.96.49-.41.92-.82,1.36-1.15.44-.3.85-.59,1.23-.85,1.49-1.02,2.32-1.55,2.35-1.5.13.18-3.33,2.22-7.7,6.87-4.36,4.64-9.4,12-13.19,20.99-1.94,4.47-3.48,8.85-4.63,12.92-1.21,4.05-2.01,7.77-2.62,10.91-.58,3.14-.91,5.71-1.11,7.49-.17,1.78-.28,2.77-.34,2.77Z"/>
      </g>
    </g>
  </g>
</svg>