<?xml version="1.0" encoding="UTF-8"?>
<svg xmlns="http://www.w3.org/2000/svg" version="1.1" xmlns:xlink="http://www.w3.org/1999/xlink" viewBox="0 0 1597.06 1200">
  <!-- Generator: Adobe Illustrator 29.1.0, SVG Export Plug-In . SVG Version: 2.1.0 Build 142)  -->
  <defs>
    <style>
      .st0 {
        fill: #4d8bd7;
      }

      .st1 {
        fill: #4545d2;
      }

      .st2 {
        fill: #e9ebfb;
      }

      .st3 {
        fill: #4f5977;
      }

      .st4 {
        fill: #fff;
      }

      .st5 {
        fill: #4b30ee;
      }

      .st6 {
        fill: #83b9fd;
      }

      .st7, .st8, .st9 {
        fill: none;
      }

      .st10 {
        fill: #393f5c;
      }

      .st11 {
        fill: #d7ddfb;
      }

      .st8 {
        stroke: #e9ebfb;
        stroke-width: .9px;
      }

      .st8, .st9 {
        stroke-linecap: round;
        stroke-linejoin: round;
      }

      .st12 {
        fill: #81b7fb;
      }

      .st13 {
        fill: #1f2e3b;
      }

      .st14 {
        isolation: isolate;
      }

      .st9 {
        stroke: #102236;
        stroke-width: .49px;
      }

      .st15 {
        fill: #ebb28b;
      }

      .st16 {
        fill: #e0e2f5;
      }

      .st17 {
        fill: #21283a;
      }

      .st18 {
        fill: #c6cbe9;
      }

      .st19 {
        fill: #b2bad9;
      }

      .st20 {
        fill: #f1f2ff;
      }

      .st21 {
        fill: #f0bc99;
      }

      .st22 {
        fill: #c8c8c8;
        opacity: .44;
      }

      .st22, .st23 {
        mix-blend-mode: multiply;
      }

      .st24 {
        fill: #f0af73;
      }

      .st25 {
        fill: #4b8dd9;
      }

      .st26 {
        fill: #8592c8;
      }

      .st27 {
        fill: #6138fb;
      }

      .st28 {
        fill: #f2f7ff;
      }

      .st23 {
        fill: #b8b8b8;
        opacity: .12;
      }

      .st29 {
        clip-path: url(#clippath);
      }

      .st30 {
        fill: #a9b0d4;
      }

      .st31 {
        fill: #fb7484;
      }
    </style>
    <clipPath id="clippath">
      <path class="st7" d="M368.47,964.46s-207.69-87.12-202.86-262.9c4.83-175.77,199.64-231,333.27-122.48,133.63,108.52,262.43,76.42,331.66-15.28,69.23-91.71,115.37-292.71,309.12-215.31,144.47,57.71,241.44,212.63,272.78,352.27,21.53,95.97-9.67,197.34-84.94,260.66-2.45,2.06-4.95,4.09-7.52,6.1l-951.5-3.06Z"/>
    </clipPath>
  </defs>
  <g class="st14">
    <g id="Layer_1">
      <g>
        <g>
          <path class="st2" d="M368.47,964.46s-207.69-87.12-202.86-262.9c4.83-175.77,199.64-203.29,333.27-94.76,133.63,108.52,262.43,76.42,331.66-15.29,69.23-91.71,115.37-320.42,309.12-243.02,144.47,57.71,241.44,212.63,272.78,352.27,21.53,95.97-9.67,197.34-84.94,260.66-2.45,2.06-4.95,4.09-7.52,6.1l-951.5-3.06Z"/>
          <g class="st29">
            <path class="st16" d="M1398.05,938.93c4.39-4.73,9.6-8.07,15.61-10.03,5.78-3.04,12.01-4.43,18.69-4.18,16.1-1.76,33.32,1.65,48.56,6.88,1.7.58,3.38,1.2,5.06,1.82,9.62-28.55,15.03-66.87,12.39-118.29-10.62-206.81-106.19-679.36-382.28-626.26-276.09,53.09-536.26,398.21-536.26,398.21,0,0-45.52,378.44,238.74,171.51,221.72-161.41,531.45-152.03,567.47,200.28,2.49-7.58,6.86-14.77,12.02-19.93Z"/>
            <path class="st16" d="M1398.05,1007.54c-4.07-3.74-7.15-8.26-9.39-13.19.35,7.36.6,14.85.73,22.48,0,0,7.15.3,17.8-2.26-3.34-2.12-6.43-4.54-9.14-7.04Z"/>
          </g>
        </g>
        <g>
          <g>
            <path class="st20" d="M627.32,271.28l251.89,1.05c33.59.14,60.06,28.66,57.7,62.17l-40.89,580.17c-2.11,29.95-27.02,53.16-57.04,53.16h-256.07c-33.25,0-59.5-28.27-57.03-61.43l43.28-581.35c2.26-30.41,27.67-53.9,58.16-53.77Z"/>
            <path class="st11" d="M627.32,271.28l251.89,1.05c33.59.14,60.06,28.66,57.7,62.17l-40.89,580.17c-2.11,29.95-27.02,53.16-57.04,53.16h-256.07c-33.25,0-59.5-28.27-57.03-61.43l43.28-581.35c2.26-30.41,27.67-53.9,58.16-53.77Z"/>
            <path class="st18" d="M599.02,271.28l251.89,1.05c33.59.14,60.06,28.66,57.7,62.17l-40.89,580.17c-2.11,29.95-27.02,53.16-57.04,53.16h-256.07c-33.25,0-59.5-28.27-57.03-61.43l43.28-581.35c2.26-30.41,27.67-53.9,58.16-53.77Z"/>
            <polygon class="st4" points="579.97 324.42 868.03 324.42 833.38 877.81 544.24 879.97 579.97 324.42"/>
            <path class="st26" d="M676.01,949.42c-15.77,0-28.6-12.83-28.6-28.6s12.83-28.6,28.6-28.6,28.61,12.83,28.61,28.6-12.83,28.6-28.61,28.6ZM676.01,896.24c-13.55,0-24.58,11.03-24.58,24.58s11.03,24.58,24.58,24.58,24.58-11.03,24.58-24.58-11.03-24.58-24.58-24.58Z"/>
            <path class="st26" d="M750.42,303.92h-48.31c-2.7,0-4.9-2.19-4.9-4.9h0c0-2.7,2.19-4.9,4.9-4.9h48.31c2.7,0,4.9,2.19,4.9,4.9h0c0,2.7-2.19,4.9-4.9,4.9Z"/>
          </g>
          <g>
            <path class="st11" d="M832.72,467.06h-233.82c-6.09,0-10.93-5.09-10.63-11.17l3.13-63.42c.28-5.67,4.96-10.12,10.63-10.12h233.82c6.09,0,10.93,5.09,10.63,11.17l-3.14,63.42c-.28,5.67-4.96,10.12-10.63,10.12Z"/>
            <path class="st18" d="M768.2,467.27h64.53c5.64,0,10.29-4.42,10.57-10.06l3.18-63.74c.3-6.05-4.52-11.12-10.57-11.12h-64.53c-5.64,0-10.29,4.42-10.57,10.06l-3.18,63.74c-.3,6.05,4.52,11.12,10.57,11.12Z"/>
            <path class="st26" d="M746.42,403.9h-133.01c-.88,0-1.59-.71-1.59-1.59s.71-1.59,1.59-1.59h133.01c.88,0,1.59.71,1.59,1.59s-.71,1.59-1.59,1.59Z"/>
            <path class="st26" d="M745.37,425.12h-133.01c-.88,0-1.59-.71-1.59-1.59s.71-1.59,1.59-1.59h133.01c.88,0,1.59.71,1.59,1.59s-.71,1.59-1.59,1.59Z"/>
            <path class="st26" d="M677.03,446.34h-65.71c-.88,0-1.59-.71-1.59-1.59s.71-1.59,1.59-1.59h65.71c.88,0,1.59.71,1.59,1.59s-.71,1.59-1.59,1.59Z"/>
          </g>
          <g>
            <path class="st11" d="M824.44,586.96h-233.82c-6.09,0-10.93-5.09-10.63-11.17l3.14-63.42c.28-5.67,4.96-10.12,10.63-10.12h233.82c6.09,0,10.93,5.09,10.63,11.17l-3.13,63.42c-.28,5.67-4.96,10.12-10.63,10.12Z"/>
            <path class="st18" d="M759.93,587.16h64.53c5.64,0,10.29-4.42,10.57-10.06l3.18-63.74c.3-6.05-4.52-11.12-10.57-11.12h-64.53c-5.64,0-10.29,4.42-10.57,10.06l-3.18,63.74c-.3,6.05,4.52,11.12,10.57,11.12Z"/>
            <path class="st26" d="M738.15,523.8h-133.01c-.88,0-1.59-.71-1.59-1.59s.71-1.59,1.59-1.59h133.01c.88,0,1.59.71,1.59,1.59s-.71,1.59-1.59,1.59Z"/>
            <path class="st26" d="M737.1,545.02h-133.01c-.88,0-1.59-.71-1.59-1.59s.71-1.59,1.59-1.59h133.01c.88,0,1.59.71,1.59,1.59s-.71,1.59-1.59,1.59Z"/>
            <path class="st26" d="M668.75,566.24h-65.71c-.88,0-1.59-.71-1.59-1.59s.71-1.59,1.59-1.59h65.71c.88,0,1.59.71,1.59,1.59s-.71,1.59-1.59,1.59Z"/>
          </g>
          <polygon class="st30" points="579.97 324.42 544.24 879.97 538.4 879.97 574.22 324.42 579.97 324.42"/>
          <g>
            <path class="st4" d="M824.95,426.95c-1.01,14.59-13.65,25.6-28.24,24.59-14.59-1.01-25.6-13.65-24.59-28.24,1.01-14.59,13.65-25.6,28.24-24.59,14.59,1.01,25.6,13.65,24.59,28.24Z"/>
            <path class="st18" d="M793.8,435.31c-.55-.04-1.08-.27-1.5-.68l-8.89-8.74c-.94-.92-.95-2.43-.03-3.36.92-.94,2.42-.95,3.36-.03l7.38,7.26,16.96-13.66c1.02-.82,2.52-.66,3.34.36.82,1.02.66,2.52-.36,3.34l-18.6,14.98c-.48.39-1.08.56-1.66.52Z"/>
          </g>
          <g>
            <path class="st4" d="M818.73,546.84c-1.01,14.59-13.65,25.6-28.24,24.59-14.59-1.01-25.6-13.65-24.59-28.24,1.01-14.59,13.65-25.6,28.24-24.59,14.59,1.01,25.6,13.65,24.59,28.24Z"/>
            <path class="st18" d="M787.57,555.2c-.55-.04-1.08-.27-1.5-.68l-8.89-8.74c-.94-.92-.95-2.43-.03-3.36.92-.94,2.42-.95,3.36-.03l7.38,7.26,16.96-13.66c1.02-.82,2.52-.66,3.34.36.82,1.02.66,2.52-.36,3.34l-18.6,14.98c-.48.39-1.08.56-1.66.52Z"/>
          </g>
        </g>
        <g>
          <path class="st6" d="M273.08,761.47s-3.39-5.28-12.15-40.59c-8.76-35.31-31.69-69.02-67.42-56.49-35.73,12.53-25.47,54.15-7.87,121.38,12.56,47.99-38.75,85.23,28.88,122.53,40.96,22.59,112.12-7.79,98.15-76.1,0,0-3.4-20.72-17.34-38.17-13.94-17.45-22.25-32.55-22.25-32.55Z"/>
          <g>
            <path class="st25" d="M244.8,972.14c-.79-.17-1.31-.93-1.19-1.74,16.25-103.98-28.13-243.64-28.58-245.04-.26-.81.18-1.68.99-1.93.81-.26,1.68.18,1.93.99.45,1.41,45.05,141.77,28.69,246.46-.13.84-.92,1.41-1.76,1.28-.03,0-.06-.01-.09-.02Z"/>
            <path class="st25" d="M230.49,780.25c-.09-.02-.17-.04-.25-.08-.79-.32-1.16-1.22-.84-2.01.08-.19,7.62-18.71,10.45-34.41.15-.84.95-1.39,1.79-1.24.84.15,1.39.95,1.24,1.79-2.89,16.03-10.56,34.84-10.64,35.03-.29.7-1.04,1.08-1.75.92Z"/>
            <path class="st25" d="M236.75,811.35c-.22-.05-.42-.14-.61-.29-7.93-6.14-27.76-17.56-27.96-17.67-.74-.42-.99-1.36-.57-2.1.42-.74,1.36-1,2.1-.57.82.47,20.21,11.63,28.31,17.91.67.52.79,1.49.27,2.16-.38.49-.99.68-1.55.56Z"/>
            <path class="st25" d="M242.09,841.65c-.11-.02-.22-.06-.32-.11-.77-.36-1.1-1.27-.74-2.04l10.15-21.75c.36-.77,1.27-1.11,2.04-.74.77.36,1.1,1.27.74,2.04l-10.15,21.75c-.31.66-1.04,1-1.72.85Z"/>
          </g>
        </g>
        <path class="st2" d="M429.26,417.67s-7.07-8.13-11.4-11.85c-7.8-6.71-16.74-18.56-45.35-9.83-2.22.68-4.38,1.58-6.52,2.49-2.52,1.07-10.33,1.1-18.33-5.26-12.71-10.09-17.68-17.71-35.1-17.95-20.26-.28-23.45,24.99-39.2,31.45-10.02,4.11-36.46,8.2-41.94,10.03l197.82.91Z"/>
        <path class="st8" d="M815.69,123.48s6.19-7.12,9.99-10.39c6.84-5.88,14.68-16.27,39.75-8.61,1.95.6,3.84,1.38,5.71,2.18,2.21.94,9.06.96,16.07-4.61,11.14-8.85,15.5-15.52,30.76-15.73,17.76-.24,20.56,21.9,34.36,27.57,8.79,3.61,31.96,7.19,36.76,8.79l-173.4.8Z"/>
        <path class="st2" d="M1124.29,242.31s10.88-12.51,17.54-18.24c12-10.33,25.77-28.57,69.8-15.12,3.42,1.05,6.74,2.43,10.03,3.83,3.88,1.64,15.9,1.69,28.22-8.09,19.57-15.54,27.22-27.26,54.02-27.62,31.19-.42,36.1,38.46,60.34,48.41,15.43,6.33,56.13,12.63,64.55,15.44l-304.51,1.4Z"/>
        <g>
          <path class="st1" d="M487.06,267.09c5.65-6.8,9.07-15.51,9.07-24.99,0-21.56-17.64-39.19-39.19-39.19h-84.92c-21.56,0-39.19,17.64-39.19,39.19s17.64,39.19,39.19,39.19h84.92c6.28,0,12.2-1.53,17.48-4.19l19.64,10.76-6.99-20.78Z"/>
          <g>
            <path class="st4" d="M435.24,242.09c0,4.71,3.82,8.54,8.54,8.54s8.54-3.82,8.54-8.54-3.82-8.54-8.54-8.54-8.54,3.82-8.54,8.54Z"/>
            <path class="st4" d="M405.94,242.09c0,4.71,3.82,8.54,8.54,8.54s8.54-3.82,8.54-8.54-3.82-8.54-8.54-8.54-8.54,3.82-8.54,8.54Z"/>
            <path class="st4" d="M376.63,242.09c0,4.71,3.82,8.54,8.54,8.54s8.54-3.82,8.54-8.54-3.82-8.54-8.54-8.54-8.54,3.82-8.54,8.54Z"/>
          </g>
        </g>
        <g>
          <path class="st12" d="M1202.23,872.23c-2.7.17-70.78-8.01-73.87-71.32-3.09-63.31,40.29-78.99,28.87-149.46-11.42-70.48-41.37-90.73,25.76-142.17,0,0,29.93-20.71,31.33-49.77,1.67-34.78,61.71-75.14,101.97-51.94,40.27,23.2,30.81,59.05-3.67,117.05-34.48,58-1.25,68.13,5.37,86.88,6.63,18.75,21.99,38.43-13.2,83.24-35.19,44.82,6.73,99.54-23.22,142.45,0,0-26.29,31.77-79.34,35.04Z"/>
          <g>
            <path class="st0" d="M1212.86,969.27c1.46-.37,2.4-1.82,2.11-3.32-36.57-193.23,37.98-456.76,38.73-459.4.44-1.53-.44-3.12-1.97-3.55-1.52-.44-3.12.44-3.55,1.97-.76,2.65-75.68,267.49-38.86,462.05.29,1.56,1.8,2.58,3.36,2.29.06-.01.12-.02.18-.04Z"/>
            <path class="st0" d="M1228.13,609.99c.16-.04.32-.09.47-.16,1.45-.65,2.1-2.35,1.45-3.8-.15-.34-15.35-34.49-21.58-63.65-.33-1.55-1.86-2.54-3.41-2.21-1.56.32-2.54,1.86-2.21,3.41,6.36,29.76,21.8,64.45,21.96,64.79.58,1.3,2,1.95,3.33,1.61Z"/>
            <path class="st0" d="M1218.29,668.45c.4-.1.78-.29,1.12-.57,14.45-11.95,50.8-34.45,51.17-34.68,1.35-.83,1.77-2.6.93-3.96-.83-1.35-2.6-1.78-3.96-.93-1.51.93-37.05,22.94-51.81,35.14-1.22,1.01-1.39,2.82-.38,4.05.73.89,1.88,1.22,2.93.95Z"/>
            <path class="st0" d="M1210.13,725.37c.2-.05.4-.12.59-.22,1.42-.72,1.98-2.45,1.27-3.86l-20.26-40.02c-.72-1.41-2.44-1.99-3.86-1.27-1.42.72-1.98,2.45-1.27,3.86l20.26,40.02c.62,1.22,1.99,1.81,3.27,1.49Z"/>
          </g>
        </g>
        <g>
          <path class="st1" d="M1365.63,897.26c-2.54,1.96-25.31-39.3-30.63-91.79,0,0-2.57-25.81,21.92-12.67,0,0-25.33-112.86,42.15-104.43,11.64,1.45,18.26,4.04,24.96,11.4,9.07,9.95,14.06,26,3.35,49.08-21.41,46.16-40.21,64.08-31.01,88.53,9.2,24.45,6.09,31.44-30.75,59.88Z"/>
          <path class="st12" d="M1372.22,970.71c1.34-.28,2.21-1.59,1.93-2.93-15.55-75.85,6.82-203.63,9.67-209.23.8-1.11.5-2.6-.61-3.4-1.11-.8-2.71-.48-3.51.63-4.61,6.42-25.51,139.41-10.42,213,.28,1.34,1.59,2.21,2.93,1.93Z"/>
        </g>
        <path class="st9" d="M200.74,969.09c392.79-.09,786.79-.09,1179.31-.02"/>
        <g>
          <g>
            <polygon class="st10" points="965.68 728.48 956.8 763.85 1063.62 769.58 1060.01 725.25 965.68 728.48"/>
            <polygon class="st10" points="1009.57 751.51 978.49 856.48 979.11 1015.08 941.18 1015.88 933.83 854.08 959.23 754.32 1009.57 751.51"/>
            <polygon class="st22" points="1005.15 766.44 980.51 764.1 998.6 788.55 1005.15 766.44"/>
            <polygon class="st10" points="1063.38 762.36 1070.56 860.87 1100.57 1023.43 1063.05 1031.14 1026.78 865.31 1014.26 751.7 1063.38 762.36"/>
            <g>
              <path class="st13" d="M952,1015.39l20.66-.14.54,29.6-58.73.39h0c.42-4.65,3.55-8.31,8.08-9.42l29.09-7.11.37-13.32Z"/>
              <rect class="st18" x="914.48" y="1045.04" width="58.73" height="4.57" transform="translate(-6.87 6.23) rotate(-.38)"/>
              <path class="st4" d="M966.43,1027.63c.02,2.49-1.99,4.52-4.48,4.53-2.49.02-4.52-1.99-4.53-4.48-.02-2.49,1.99-4.52,4.48-4.53,2.49-.02,4.52,1.99,4.53,4.48Z"/>
            </g>
            <g>
              <path class="st13" d="M1073.91,1027.04l20.48-2.71,4.23,29.3-58.22,7.71h0c-.16-4.66,2.48-8.69,6.84-10.36l27.97-10.69-1.29-13.26Z"/>
              <rect class="st18" x="1040.44" y="1057.46" width="58.73" height="4.57" transform="translate(-129.93 149.7) rotate(-7.55)"/>
              <path class="st4" d="M1089.75,1037.38c.33,2.47-1.41,4.73-3.87,5.06-2.47.33-4.73-1.41-5.06-3.87-.33-2.47,1.41-4.73,3.87-5.06,2.47-.33,4.73,1.41,5.06,3.87Z"/>
            </g>
            <path class="st5" d="M922.51,674c-.41-.03-.83-.07-1.25-.14l-96.46-14.33,4.69-31.53,86.41,12.84c17.18-26.09,43.45-56.63,43.45-56.63-.19.39.98,1.38,0,0l30.4,3.14c1.36,7.68-5.33,7.74-52.86,79.54-3.18,4.81-8.7,7.5-14.39,7.1Z"/>
            <path class="st27" d="M1013.29,575.99l3.14.52c13.78,2.26,24.87,12.54,28.19,26.1l22.07,125.74c-46.94,25.59-106.34.28-106.34.28l-11.41-117.27c-1.6-12.92,5.15-25.45,16.83-31.21h0l47.52-4.15Z"/>
            <polygon class="st15" points="1002.7 587.16 976.27 584.96 980.57 524.97 1007 527.16 1002.7 587.16"/>
            <path class="st15" d="M969.79,579.77l40.38-3.53s-.29,23.59-24.64,23.25c-22.27-.31-15.73-19.72-15.73-19.72Z"/>
            <g>
              <path class="st4" d="M826.35,643.7c-1.58,9.33-10.42,15.61-19.76,14.04-9.33-1.58-15.61-10.43-14.03-19.76,1.58-9.33,10.42-15.61,19.76-14.03,9.33,1.58,15.61,10.43,14.03,19.76Z"/>
              <path class="st4" d="M835.76,653.98l-17.57-2.98c-4.59-.78-7.71-5.17-6.93-9.76h0c.78-4.59,5.17-7.71,9.76-6.93l17.57,2.98c4.59.78,7.71,5.17,6.93,9.76h0c-.78,4.59-5.17,7.71-9.76,6.93Z"/>
            </g>
            <g>
              <circle class="st31" cx="826.37" cy="655.08" r="49.27" transform="translate(-124.66 1110.65) rotate(-64)"/>
              <path class="st28" d="M817.55,674.04c-1.02-.07-2.02-.49-2.8-1.26l-16.55-16.26c-1.74-1.71-1.77-4.51-.05-6.26,1.71-1.74,4.51-1.77,6.26-.05l13.74,13.5,31.55-25.41c1.9-1.53,4.69-1.24,6.22.67,1.53,1.9,1.23,4.69-.67,6.22l-34.62,27.88c-.9.72-2,1.04-3.08.97Z"/>
            </g>
            <path class="st21" d="M971.48,565.38h0c-17.96-1.24-31.51-16.8-30.26-34.76l2.79-40.41,65.03,4.5-2.79,40.41c-1.24,17.96-16.8,31.51-34.76,30.26Z"/>
            <path class="st17" d="M1006.66,524.36l-9.28-.46c-2.53-.12-4.3-2.52-3.7-4.98,1.62-6.63,3.72-18.05-.55-19.69-6.08-2.34-39.74,4.35-50.53-4.93-15.2-13.06-2.57-31.76,11.83-31.73,14.4.04,11.3,16.53,28.05,17.21,16.75.68,42.53-4.26,28.95,39.44l-4.76,5.15Z"/>
            <path class="st21" d="M1018,526.89c-.39,5.64-5.28,9.9-10.92,9.51-5.64-.39-9.9-5.28-9.51-10.92.39-5.64,5.28-9.9,10.92-9.51,5.64.39,9.9,5.28,9.51,10.92Z"/>
            <g>
              <path class="st24" d="M890.94,685.84c-.65,9.44-8.84,16.57-18.28,15.91-9.44-.65-16.57-8.84-15.91-18.28.65-9.44,8.84-16.57,18.28-15.91,9.44.65,16.57,8.84,15.91,18.28Z"/>
              <path class="st24" d="M901.32,695.14l-17.78-1.23c-4.65-.32-8.18-4.38-7.86-9.03h0c.32-4.65,4.38-8.18,9.03-7.86l17.78,1.23c4.65.32,8.18,4.38,7.86,9.03h0c-.32,4.64-4.38,8.18-9.03,7.86Z"/>
            </g>
            <path class="st27" d="M891.61,701.56l.05-31.88,87.84.13,30.2-71.63c3.65-8.01,13.11-11.54,21.11-7.88h0c8.01,3.65,11.54,13.11,7.89,21.11l-34.46,80.97c-2.59,5.69-8.27,9.33-14.52,9.32l-98.11-.15Z"/>
            <rect class="st3" x="936.28" y="999.29" width="47.55" height="16.58"/>
            <rect class="st3" x="1057" y="1012" width="47.55" height="16.58" transform="translate(-176.14 227.05) rotate(-11.09)"/>
          </g>
          <path class="st4" d="M947.56,536.54l28.06,1.34s-1.65,10.75-16.76,9.1c-11.92-1.3-11.3-10.44-11.3-10.44Z"/>
          <path class="st5" d="M957.73,701.66l28.36.05c7.96-.51,15.01-5.33,18.37-12.56l31.53-71.37c-12.22,41.63-28.29,84.03-28.29,84.03-1.97,5.41-7.19,8.93-12.94,8.73l-36.31-1.46-.72-7.41Z"/>
        </g>
        <g>
          <rect class="st23" x="556.91" y="692.25" width="232.33" height="77.13" rx="1.93" ry="1.93" transform="translate(-90.2 94.78) rotate(-7.55)"/>
          <rect class="st11" x="541.93" y="666.98" width="232.33" height="77.13" rx="1.93" ry="1.93" transform="translate(-87.01 92.6) rotate(-7.55)"/>
          <path class="st26" d="M560.57,699.36c-.72,0-1.34-.53-1.43-1.26-.11-.8.45-1.52,1.24-1.63l120.07-15.92c.84-.16,1.52.45,1.63,1.24.11.8-.45,1.52-1.24,1.63l-120.07,15.92c-.07.01-.13.02-.19.02Z"/>
          <path class="st26" d="M563.11,718.51c-.72,0-1.34-.53-1.43-1.26-.11-.8.45-1.52,1.24-1.63l120.07-15.92c.84-.16,1.52.45,1.63,1.24.11.8-.45,1.52-1.24,1.63l-120.07,15.92c-.07.01-.13.02-.19.02Z"/>
          <path class="st26" d="M565.65,737.67c-.72,0-1.34-.53-1.43-1.26-.11-.8.45-1.52,1.24-1.63l59.41-7.95c.84-.15,1.52.45,1.63,1.24.11.8-.45,1.52-1.24,1.63l-59.41,7.95c-.07.01-.13.02-.19.02Z"/>
        </g>
        <g>
          <path class="st13" d="M479.21,996.36l-18.81-1.42-2.76,30.9,53.57,4.24.32-4.16c-.09-4.26-2.71-7.79-6.77-9.09l-26.05-8.31.5-12.15Z"/>
          <path class="st13" d="M235.56,985.06l-1.87-18.77-30.91,2.66,5.14,53.49,4.15-.41c4.18-.83,7.21-4.02,7.77-8.24l3.65-27.1,12.05-1.62Z"/>
          <path class="st27" d="M313.15,845.14l34.1,109.94-118.95,7.08,3.54,28.31,145.04-4.89c12.88-.42,22.64-10.24,20.01-25.24l-8.13-81.68,76.68-1.18-13.26,121.26,33.03,1.18,32.4-136.26c3.97-16.7-8.45-32.82-25.61-33.23l-78.01-1.95-100.84,16.68Z"/>
          <g>
            <g>
              <polygon class="st15" points="362.1 716.87 391.42 723.09 403.86 660.89 374.82 654.81 362.1 716.87"/>
              <path class="st21" d="M385.13,693.37h0c16.41,3.44,32.5-7.08,35.94-23.49l7.74-36.93-59.43-12.45-7.74,36.93c-3.44,16.41,7.08,32.5,23.49,35.94Z"/>
              <path class="st17" d="M407.06,648.91l-5.69,27.15c-2.27,10.84-12.41,17.89-22.65,15.74l-5.37-1.12c-17.91-3.75-29.2-22.16-25.23-41.11l5.14-24.54,55.84,11.7-2.04,12.18Z"/>
              <path class="st17" d="M405.13,644.89s13.94,3.69,22.72,3.82c11.46.17,18.56-12.97,11.42-21.93-.32-.4-.66-.79-1.02-1.19-8.74-9.51-23.99-4.77-23.91-3.82s-9.21,23.12-9.21,23.12Z"/>
              <path class="st17" d="M423.12,629.16s-17.08-25.06-46.6-17.67c0,0-11.33-.6-23.26,13.54l49.66,23.65,20.2-19.51Z"/>
              <path class="st21" d="M394.89,660.91c-1.01,4.8,2.07,9.51,6.87,10.51,4.8,1.01,9.51-2.07,10.51-6.87,1.01-4.8-2.07-9.51-6.87-10.51-4.8-1.01-9.51,2.07-10.51,6.87Z"/>
              <path class="st17" d="M381.93,607.82c-3.25,15.52-18.47,25.46-33.98,22.21-15.52-3.25-25.46-18.47-22.21-33.98,3.25-15.52,18.47-25.46,33.98-22.21,15.52,3.25,25.46,18.47,22.21,33.98Z"/>
            </g>
            <path class="st31" d="M414.79,827.5c-10.94-17.8-5.73-58.91-1.23-83.56,2.21-12.12-3.29-24.35-13.74-30.86h0l-33.96-10.05c-8.42-2.9-19.43,6.87-25.43,13.46-53.57,58.87-32.93,133.84-32.93,133.84,18.27,4.46,40.74,4.25,52.98,2.73v.02c.15-.02.3-.05.46-.06.22-.03.44-.06.67-.09,32.67-3.56,53.19-25.42,53.19-25.42Z"/>
            <g>
              <g>
                <path class="st21" d="M542.41,731.22c5.94,8.21,17.42,10.05,25.63,4.11,8.21-5.94,10.05-17.41,4.11-25.63-5.94-8.21-17.41-10.05-25.63-4.11-8.21,5.94-10.05,17.41-4.11,25.63Z"/>
                <path class="st21" d="M538.25,745.56l15.46-11.19c4.04-2.92,4.95-8.62,2.03-12.66h0c-2.92-4.04-8.62-4.95-12.66-2.03l-15.47,11.19c-4.04,2.92-4.95,8.62-2.03,12.66h0c2.92,4.04,8.62,4.95,12.66,2.03Z"/>
              </g>
              <path class="st31" d="M550.71,745.89l-18.1-28.95-79.77,49.88-50.07-50.98c-7.86-5.21-18.45-3.06-23.66,4.79h0c-5.21,7.86-3.06,18.45,4.79,23.66l59.23,57.06c5.58,3.7,12.8,3.8,18.48.25l89.09-55.71Z"/>
            </g>
          </g>
          <polygon class="st22" points="388.77 878.65 420.93 860.6 419.19 868.95 465.45 877.47 388.77 878.65"/>
        </g>
        <g>
          <path class="st4" d="M1097.46,422.69l-2.66-7.62-2.66,7.62c-2.24,6.42-7.57,11.84-14.78,15.05h0c7.21,3.2,12.54,8.62,14.78,15.05l2.66,7.62,2.66-7.62c2.24-6.42,7.57-11.84,14.78-15.05h0c-7.21-3.2-12.54-8.62-14.78-15.05Z"/>
          <path class="st4" d="M299.59,643.87l-1.76-5.03-1.76,5.03c-1.48,4.24-4.99,7.81-9.75,9.93h0c4.76,2.11,8.27,5.69,9.75,9.93l1.76,5.03,1.76-5.03c1.48-4.24,4.99-7.81,9.75-9.93h0c-4.76-2.11-8.27-5.69-9.75-9.93Z"/>
        </g>
        <g>
          <polygon class="st19" points="561.22 1087.32 567.72 1099.85 642.29 1101.75 657.47 1060.19 651.19 1048.1 561.22 1087.32"/>
          <path class="st19" d="M577.78,1104.83l65.13,2.48c5.69.22,10.47-2.3,10.85-5.73l4.32-38.75c.41-3.68-4.37-6.95-10.48-7.18l-65.13-2.48c-5.69-.22-10.47,2.3-10.85,5.73l-4.32,38.75c-.41,3.68,4.37,6.95,10.48,7.18Z"/>
          <path class="st18" d="M571.49,1092.7l65.13,2.48c5.69.22,10.47-2.3,10.85-5.73l4.32-38.75c.41-3.68-4.37-6.95-10.48-7.18l-65.13-2.48c-5.69-.22-10.47,2.3-10.85,5.73l-4.32,38.75c-.41,3.68,4.37,6.95,10.48,7.18Z"/>
        </g>
      </g>
    </g>
  </g>
</svg>