<?xml version="1.0" encoding="UTF-8"?>
<svg id="Layer_1" xmlns="http://www.w3.org/2000/svg" version="1.1" xmlns:xlink="http://www.w3.org/1999/xlink" viewBox="0 0 841.89 595.28">
  <!-- Generator: Adobe Illustrator 29.1.0, SVG Export Plug-In . SVG Version: 2.1.0 Build 142)  -->
  <defs>
    <style>
      .st0 {
        fill: url(#linear-gradient2);
      }

      .st1 {
        fill: #fff;
      }

      .st2 {
        fill: url(#linear-gradient1);
      }

      .st3 {
        fill: url(#linear-gradient8);
      }

      .st4 {
        fill: url(#linear-gradient7);
      }

      .st5 {
        fill: url(#linear-gradient4);
      }

      .st6 {
        fill: url(#linear-gradient5);
      }

      .st7 {
        fill: url(#linear-gradient3);
      }

      .st8 {
        fill: url(#linear-gradient6);
      }

      .st9 {
        fill: url(#linear-gradient);
      }
    </style>
    <linearGradient id="linear-gradient" x1="4220.06" y1="390.34" x2="4365.36" y2="235.97" gradientTransform="translate(4730.08) rotate(-180) scale(1 -1)" gradientUnits="userSpaceOnUse">
      <stop offset="0" stop-color="#4125c5"/>
      <stop offset="1" stop-color="#d543c0"/>
    </linearGradient>
    <linearGradient id="linear-gradient1" x1="4343.6" y1="300.53" x2="4365.6" y2="300.53" xlink:href="#linear-gradient"/>
    <linearGradient id="linear-gradient2" x1="4293.6" y1="300.53" x2="4315.6" y2="300.53" xlink:href="#linear-gradient"/>
    <linearGradient id="linear-gradient3" x1="4243.6" y1="300.53" x2="4265.6" y2="300.53" xlink:href="#linear-gradient"/>
    <linearGradient id="linear-gradient4" x1="371.15" y1="275.53" x2="463.15" y2="275.53" gradientTransform="translate(-264.32)" xlink:href="#linear-gradient"/>
    <linearGradient id="linear-gradient5" x1="371.15" y1="315.53" x2="423.15" y2="315.53" gradientTransform="translate(-264.32)" xlink:href="#linear-gradient"/>
    <linearGradient id="linear-gradient6" x1="4471.25" y1="295.53" x2="4683.25" y2="295.53" xlink:href="#linear-gradient"/>
    <linearGradient id="linear-gradient7" x1="592.13" y1="340.53" x2="714.13" y2="340.53" gradientTransform="matrix(1,0,0,1,0,0)" xlink:href="#linear-gradient"/>
    <linearGradient id="linear-gradient8" x1="632.96" y1="275.02" x2="804.13" y2="275.02" gradientTransform="matrix(1,0,0,1,0,0)" xlink:href="#linear-gradient"/>
  </defs>
  <rect class="st1" x="-5.63" y="-5.49" width="853.06" height="606.12"/>
  <g>
    <path class="st9" d="M425.48,194.53c58.44,0,106,47.55,106,106,0,17.88-4.52,35.48-13.09,51.04l7.98,42.86c.37,1.94-.25,3.94-1.65,5.34-1.4,1.4-3.4,2.02-5.34,1.65l-42.86-7.97c-15.57,8.56-33.17,13.08-51.04,13.08-58.45,0-106-47.56-106-106s47.55-106,106-106ZM425.48,394.53c16.52,0,32.77-4.35,46.99-12.57.92-.54,1.96-.81,3.01-.81.36,0,.73.03,1.09.1l36.41,6.78-6.78-36.41c-.26-1.4-.01-2.86.7-4.1,8.23-14.22,12.58-30.47,12.58-46.99,0-51.84-42.17-94-94-94s-94,42.16-94,94,42.16,94,94,94Z"/>
    <path class="st2" d="M364.48,300.53c0,6.06,4.93,11,11,11s11-4.94,11-11-4.94-11-11-11-11,4.93-11,11Z"/>
    <path class="st0" d="M414.48,300.53c0,6.06,4.93,11,11,11s11-4.94,11-11-4.94-11-11-11-11,4.93-11,11Z"/>
    <path class="st7" d="M464.48,300.53c0,6.06,4.93,11,11,11s11-4.94,11-11-4.94-11-11-11-11,4.93-11,11Z"/>
  </g>
  <g>
    <path class="st5" d="M192.83,281.53h-80c-3.31,0-6-2.69-6-6s2.69-6,6-6h80c3.31,0,6,2.69,6,6s-2.69,6-6,6Z"/>
    <path class="st6" d="M152.83,321.53h-40c-3.31,0-6-2.69-6-6s2.69-6,6-6h40c3.31,0,6,2.69,6,6s-2.69,6-6,6Z"/>
    <path class="st8" d="M152.83,401.53c17.88,0,35.48-4.52,51.05-13.08l42.85,7.98c1.95.36,3.94-.26,5.34-1.66,1.4-1.4,2.02-3.4,1.66-5.34l-7.98-42.85c8.56-15.57,13.08-33.17,13.08-51.05,0-58.45-47.55-106-106-106s-106,47.55-106,106,47.55,106,106,106ZM202.83,376.15c-1.05,0-2.08.27-3,.81-14.22,8.22-30.47,12.57-47,12.57-51.83,0-94-42.17-94-94s42.17-94,94-94,94,42.17,94,94c0,16.53-4.35,32.78-12.57,47-.72,1.24-.97,2.69-.71,4.1l6.78,36.4-36.4-6.78c-.37-.07-.73-.1-1.1-.1Z"/>
  </g>
  <g>
    <path class="st4" d="M653.13,401.53c-9.96,0-19.77-2.44-28.52-7.07l-22.63,4.21c-1.95.36-3.94-.26-5.34-1.66s-2.02-3.4-1.66-5.34l4.21-22.63c-4.63-8.75-7.06-18.56-7.06-28.52,0-33.64,27.36-61,61-61s61,27.36,61,61-27.36,61-61,61ZM625.63,382.17c1.05,0,2.09.28,3,.81,7.41,4.29,15.88,6.55,24.5,6.55,27.02,0,49-21.98,49-49s-21.98-49-49-49-49,21.98-49,49c0,8.62,2.27,17.09,6.55,24.5.72,1.24.97,2.69.71,4.1l-3.01,16.15,16.15-3.01c.36-.07.73-.1,1.1-.1Z"/>
    <path class="st3" d="M730.95,360.51c-2.89,0-5.44-2.1-5.92-5.05-.53-3.27,1.7-6.35,4.97-6.88,8.88-1.43,17.33-4.44,25.13-8.95,1.24-.72,2.69-.97,4.1-.71l27.4,5.1-5.1-27.4c-.26-1.41-.01-2.86.71-4.1,6.47-11.19,9.9-23.99,9.9-37,0-40.8-33.2-74-74-74-36.55,0-68.04,27.23-73.24,63.34-.47,3.28-3.52,5.56-6.79,5.08-3.28-.47-5.56-3.51-5.08-6.79,2.92-20.27,13.07-38.89,28.57-52.43,15.66-13.67,35.74-21.2,56.55-21.2,47.42,0,86,38.58,86,86,0,14.36-3.59,28.5-10.41,41.04l6.3,33.86c.36,1.94-.26,3.94-1.66,5.34-1.4,1.4-3.4,2.02-5.34,1.66l-33.86-6.3c-8.52,4.63-17.68,7.76-27.26,9.31-.32.05-.64.08-.96.08Z"/>
  </g>
</svg>