<?xml version="1.0" encoding="UTF-8"?>
<svg id="Layer_1" xmlns="http://www.w3.org/2000/svg" version="1.1" xmlns:xlink="http://www.w3.org/1999/xlink" viewBox="0 0 1200 1200">
  <!-- Generator: Adobe Illustrator 29.1.0, SVG Export Plug-In . SVG Version: 2.1.0 Build 142)  -->
  <defs>
    <style>
      .st0 {
        fill: url(#linear-gradient2);
      }

      .st1 {
        fill: url(#linear-gradient10);
      }

      .st2, .st3 {
        fill: none;
        stroke: #000;
        stroke-width: 10px;
      }

      .st4 {
        fill: #e6e3ff;
      }

      .st5 {
        fill: #fff;
      }

      .st6 {
        fill: url(#linear-gradient1);
      }

      .st7 {
        fill: url(#linear-gradient9);
      }

      .st8 {
        fill: url(#linear-gradient18);
      }

      .st9 {
        fill: url(#linear-gradient8);
      }

      .st10 {
        fill: url(#linear-gradient11);
      }

      .st11 {
        fill: url(#linear-gradient16);
      }

      .st12 {
        fill: url(#linear-gradient12);
      }

      .st13 {
        fill: url(#linear-gradient7);
      }

      .st14 {
        fill: url(#linear-gradient4);
      }

      .st3 {
        stroke-linecap: round;
        stroke-linejoin: round;
      }

      .st15 {
        fill: url(#linear-gradient14);
      }

      .st16 {
        fill: url(#linear-gradient5);
      }

      .st17 {
        fill: url(#linear-gradient3);
      }

      .st18 {
        fill: url(#linear-gradient15);
      }

      .st19 {
        fill: url(#linear-gradient17);
      }

      .st20 {
        fill: url(#linear-gradient6);
      }

      .st21 {
        fill: url(#linear-gradient13);
      }

      .st22 {
        fill: url(#linear-gradient);
      }
    </style>
    <linearGradient id="linear-gradient" x1="0" y1="849.85" x2="1200" y2="849.85" gradientUnits="userSpaceOnUse">
      <stop offset="0" stop-color="#4125c5"/>
      <stop offset="1" stop-color="#d543c0"/>
    </linearGradient>
    <linearGradient id="linear-gradient1" x1="419.76" y1="146.19" x2="476.36" y2="146.19" gradientTransform="translate(-264.32)" xlink:href="#linear-gradient"/>
    <linearGradient id="linear-gradient2" x1="419.76" y1="170.8" x2="451.75" y2="170.8" gradientTransform="translate(-264.32)" xlink:href="#linear-gradient"/>
    <linearGradient id="linear-gradient3" x1="4838.51" y1="158.5" x2="4968.94" y2="158.5" gradientTransform="translate(5087.46) rotate(-180) scale(1 -1)" xlink:href="#linear-gradient"/>
    <linearGradient id="linear-gradient4" x1="534.98" y1="188.72" x2="609.81" y2="188.72" xlink:href="#linear-gradient"/>
    <linearGradient id="linear-gradient5" x1="560.02" y1="148.53" x2="665.02" y2="148.53" xlink:href="#linear-gradient"/>
    <linearGradient id="linear-gradient6" x1="4643.7" y1="213.54" x2="4732.74" y2="118.94" gradientTransform="translate(5087.46) rotate(-180) scale(1 -1)" xlink:href="#linear-gradient"/>
    <linearGradient id="linear-gradient7" x1="4719.4" y1="158.5" x2="4732.88" y2="158.5" gradientTransform="translate(5087.46) rotate(-180) scale(1 -1)" xlink:href="#linear-gradient"/>
    <linearGradient id="linear-gradient8" x1="4688.76" y1="158.5" x2="4702.24" y2="158.5" gradientTransform="translate(5087.46) rotate(-180) scale(1 -1)" xlink:href="#linear-gradient"/>
    <linearGradient id="linear-gradient9" x1="4658.12" y1="158.5" x2="4671.6" y2="158.5" gradientTransform="translate(5087.46) rotate(-180) scale(1 -1)" xlink:href="#linear-gradient"/>
    <linearGradient id="linear-gradient10" x1="130.21" y1="370.89" x2="211.36" y2="370.89" xlink:href="#linear-gradient"/>
    <linearGradient id="linear-gradient11" x1="221.99" y1="368.11" x2="239.18" y2="368.11" xlink:href="#linear-gradient"/>
    <linearGradient id="linear-gradient12" x1="238.68" y1="368.11" x2="261.43" y2="368.11" xlink:href="#linear-gradient"/>
    <linearGradient id="linear-gradient13" x1="330.86" y1="370.89" x2="459.94" y2="370.89" xlink:href="#linear-gradient"/>
    <linearGradient id="linear-gradient14" x1="787.05" y1="341.23" x2="861.06" y2="341.23" xlink:href="#linear-gradient"/>
    <linearGradient id="linear-gradient15" x1="730.02" y1="372" x2="861.01" y2="372" xlink:href="#linear-gradient"/>
    <linearGradient id="linear-gradient16" x1="936.93" y1="393.45" x2="1050.05" y2="393.45" xlink:href="#linear-gradient"/>
    <linearGradient id="linear-gradient17" x1="930.48" y1="319.33" x2="1056.5" y2="319.33" xlink:href="#linear-gradient"/>
    <linearGradient id="linear-gradient18" x1="529.37" y1="370.89" x2="660.59" y2="370.89" xlink:href="#linear-gradient"/>
  </defs>
  <rect class="st5" x="-12.76" y="-12.06" width="1226.47" height="1220.59"/>
  <rect class="st22" y="495.47" width="1200" height="708.77"/>
  <g>
    <path class="st6" d="M208.35,149.89h-49.22c-2.04,0-3.69-1.65-3.69-3.69s1.65-3.69,3.69-3.69h49.22c2.04,0,3.69,1.65,3.69,3.69s-1.65,3.69-3.69,3.69Z"/>
    <path class="st0" d="M183.74,174.5h-24.61c-2.04,0-3.69-1.65-3.69-3.69s1.65-3.69,3.69-3.69h24.61c2.04,0,3.69,1.65,3.69,3.69s-1.65,3.69-3.69,3.69Z"/>
    <path class="st17" d="M183.74,223.71c11,0,21.83-2.78,31.41-8.05l26.36,4.91c1.2.22,2.43-.16,3.29-1.02.86-.86,1.24-2.09,1.02-3.29l-4.91-26.36c5.27-9.58,8.05-20.41,8.05-31.41,0-35.96-29.25-65.21-65.21-65.21s-65.21,29.25-65.21,65.21,29.25,65.21,65.21,65.21ZM214.5,208.1c-.65,0-1.28.17-1.85.5-8.75,5.06-18.75,7.73-28.91,7.73-31.89,0-57.83-25.94-57.83-57.83s25.94-57.83,57.83-57.83,57.83,25.94,57.83,57.83c0,10.17-2.67,20.16-7.73,28.91-.44.76-.6,1.66-.43,2.52l4.17,22.4-22.4-4.17c-.22-.04-.45-.06-.68-.06Z"/>
  </g>
  <g>
    <path class="st14" d="M572.4,226.13c-6.11,0-12.13-1.49-17.49-4.33l-13.88,2.58c-1.19.22-2.42-.16-3.28-1.02s-1.24-2.08-1.02-3.28l2.58-13.88c-2.84-5.36-4.33-11.38-4.33-17.49,0-20.63,16.79-37.42,37.42-37.42s37.42,16.79,37.42,37.42-16.79,37.42-37.42,37.42ZM555.53,214.26c.64,0,1.28.17,1.84.49,4.54,2.63,9.74,4.02,15.03,4.02,16.57,0,30.06-13.48,30.06-30.06s-13.48-30.06-30.06-30.06-30.06,13.48-30.06,30.06c0,5.29,1.39,10.48,4.02,15.03.44.76.59,1.65.43,2.52l-1.84,9.91,9.91-1.84c.22-.04.45-.06.67-.06Z"/>
    <path class="st16" d="M620.13,200.97c-1.78,0-3.34-1.29-3.63-3.1-.32-2.01,1.04-3.9,3.05-4.22,5.45-.88,10.63-2.72,15.41-5.49.76-.44,1.65-.59,2.52-.43l16.81,3.13-3.13-16.81c-.16-.86,0-1.76.43-2.52,3.97-6.87,6.07-14.71,6.07-22.69,0-25.03-20.36-45.39-45.39-45.39-22.42,0-41.73,16.7-44.93,38.86-.29,2.01-2.16,3.41-4.17,3.12-2.01-.29-3.41-2.16-3.12-4.17,1.79-12.43,8.02-23.86,17.53-32.16,9.6-8.39,21.92-13.01,34.69-13.01,29.09,0,52.75,23.66,52.75,52.75,0,8.81-2.2,17.48-6.38,25.17l3.87,20.77c.22,1.19-.16,2.42-1.02,3.28-.86.86-2.08,1.24-3.28,1.02l-20.77-3.87c-5.22,2.84-10.84,4.76-16.72,5.71-.2.03-.4.05-.59.05Z"/>
  </g>
  <g>
    <path class="st20" d="M391.96,93.54c35.81,0,64.96,29.14,64.96,64.96,0,10.96-2.77,21.74-8.02,31.28l4.89,26.26c.23,1.19-.15,2.41-1.01,3.27-.86.86-2.08,1.24-3.27,1.01l-26.26-4.88c-9.54,5.25-20.33,8.02-31.28,8.02-35.82,0-64.96-29.14-64.96-64.96s29.14-64.96,64.96-64.96ZM391.96,216.1c10.12,0,20.08-2.67,28.79-7.7.56-.33,1.2-.5,1.84-.5.22,0,.45.02.67.06l22.31,4.15-4.15-22.31c-.16-.86,0-1.75.43-2.51,5.04-8.71,7.71-18.67,7.71-28.79,0-31.77-25.84-57.6-57.6-57.6s-57.6,25.84-57.6,57.6,25.84,57.6,57.6,57.6Z"/>
    <path class="st13" d="M354.58,158.5c0,3.71,3.02,6.74,6.74,6.74s6.74-3.03,6.74-6.74-3.03-6.74-6.74-6.74-6.74,3.02-6.74,6.74Z"/>
    <path class="st9" d="M385.22,158.5c0,3.71,3.02,6.74,6.74,6.74s6.74-3.03,6.74-6.74-3.03-6.74-6.74-6.74-6.74,3.02-6.74,6.74Z"/>
    <path class="st7" d="M415.86,158.5c0,3.71,3.02,6.74,6.74,6.74s6.74-3.03,6.74-6.74-3.03-6.74-6.74-6.74-6.74,3.02-6.74,6.74Z"/>
  </g>
  <g>
    <path class="st2" d="M-259.64,305.33v-23.37c0-6.95,5.63-12.58,12.58-12.58h18.25c1.23,0,2.44-.36,3.46-1.04l37.74-24.89c4.18-2.76,9.75.24,9.75,5.25v89.88c0,5.01-5.57,8.01-9.75,5.25l-37.74-24.89c-1.03-.68-2.23-1.04-3.46-1.04h-18.25c-6.95,0-12.58-5.63-12.58-12.58Z"/>
    <path class="st3" d="M-155.83,265.34s9.44,9.44,9.44,25.17-9.44,25.17-9.44,25.17"/>
    <path class="st3" d="M-136.96,246.46s15.73,15.73,15.73,44.04-15.73,44.04-15.73,44.04"/>
  </g>
  <g>
    <path class="st3" d="M-206.99,463.25l-42.99,42.99"/>
    <path class="st3" d="M-236.75,430.08l60.8,60.8,11.22-11.22-2.59-25.04,36.44-30.91-38.69-38.69-30.91,36.43-25.04-2.59-11.22,11.22Z"/>
  </g>
  <g>
    <path class="st3" d="M-207.26,625.87l-43.69,43.69"/>
    <path class="st3" d="M-219.52,581.44l-6.58-.68-11.41,11.41,61.79,61.79,11.41-11.41-.68-6.59M-193.92,575.46l24.68-29.1,39.32,39.32-28.95,24.56"/>
    <path class="st3" d="M-250.95,548.57l120.99,120.99"/>
  </g>
  <g>
    <path class="st3" d="M-138.87,754.8l-12.86,73.13c-1.08,6.16-6.44,10.66-12.69,10.66h-52.02c-6.26,0-11.61-4.49-12.7-10.66l-12.86-73.13"/>
    <path class="st3" d="M-132.43,735.47h-36.25M-248.44,735.47h36.25M-212.19,735.47v-12.89c0-7.12,5.77-12.89,12.89-12.89h17.72c7.12,0,12.89,5.77,12.89,12.89v12.89M-212.19,735.47h43.5"/>
  </g>
  <g>
    <path class="st1" d="M201.38,420.61c-1.92,0-3.83-.55-5.49-1.65l-33.37-22c-.19-.12-.4-.19-.63-.19h-16.13c-8.57,0-15.55-6.97-15.55-15.55v-20.66c0-8.57,6.97-15.55,15.55-15.55h16.13c.22,0,.44-.07.63-.19l33.37-22c3.07-2.02,6.99-2.2,10.23-.46,3.24,1.74,5.25,5.11,5.25,8.79v79.47c0,3.68-2.01,7.05-5.25,8.79-1.48.8-3.11,1.2-4.73,1.2ZM145.75,353.86c-3.7,0-6.7,3.01-6.7,6.7v20.66c0,3.7,3.01,6.7,6.7,6.7h16.13c1.96,0,3.86.57,5.5,1.65l33.37,22c.47.31.89.2,1.17.05.27-.15.6-.44.6-1.01v-79.47c0-.56-.33-.86-.6-1.01-.27-.15-.7-.26-1.17.05l-33.37,22c-1.64,1.08-3.54,1.65-5.5,1.65h-16.13Z"/>
    <path class="st10" d="M226.41,394.78c-1.13,0-2.26-.43-3.13-1.29-1.73-1.73-1.73-4.53,0-6.25.05-.05,7.05-7.35,7.05-19.12s-7-19.07-7.07-19.14c-1.7-1.74-1.68-4.53.04-6.24,1.73-1.71,4.5-1.71,6.22,0,.39.39,9.64,9.82,9.64,25.38s-9.25,24.98-9.64,25.38c-.86.86-1.99,1.29-3.13,1.29Z"/>
    <path class="st12" d="M243.1,411.47c-1.13,0-2.26-.43-3.13-1.29-1.73-1.73-1.73-4.53,0-6.25.11-.12,12.61-13.08,12.61-35.81s-12.5-35.7-12.62-35.82c-1.71-1.74-1.7-4.53.03-6.25,1.73-1.71,4.51-1.71,6.23,0,.62.62,15.2,15.51,15.2,42.06s-14.58,41.44-15.2,42.06c-.86.86-1.99,1.29-3.13,1.29Z"/>
  </g>
  <path class="st21" d="M459.94,349.17c.06-1.4-.47-2.75-1.46-3.74l-38.69-38.69c-.99-.99-2.34-1.52-3.74-1.46-1.4.06-2.7.7-3.61,1.76l-29.2,34.42-22.42-2.32c-1.5-.15-2.99.37-4.05,1.44l-11.22,11.22c-1.95,1.95-1.95,5.12,0,7.07l27.93,27.93-41.16,41.16c-1.95,1.95-1.95,5.12,0,7.07.98.98,2.26,1.46,3.54,1.46s2.56-.49,3.54-1.46l41.16-41.16,25.8,25.8c.94.94,2.21,1.46,3.54,1.46s2.6-.53,3.54-1.46l11.22-11.22c1.06-1.06,1.59-2.55,1.44-4.05l-2.32-22.42,34.42-29.2c1.07-.9,1.7-2.21,1.76-3.61ZM415.28,376.06c-1.26,1.07-1.91,2.69-1.74,4.33l2.35,22.67-6,6.01-53.72-53.72,6-6,22.67,2.35c1.64.17,3.26-.48,4.33-1.74l27.4-32.3,31.01,31.01-32.3,27.4Z"/>
  <g>
    <path class="st15" d="M795.87,341.62l21.17-24.96,31.65,31.65-24.81,21.05c-2.11,1.79-2.37,4.94-.58,7.05.99,1.17,2.4,1.77,3.82,1.77,1.14,0,2.29-.39,3.23-1.19l28.95-24.56c1.07-.9,1.7-2.21,1.76-3.61.06-1.4-.47-2.75-1.46-3.74l-39.32-39.32c-.99-.99-2.35-1.52-3.74-1.46-1.4.06-2.7.7-3.61,1.76l-24.68,29.1c-1.79,2.11-1.53,5.26.58,7.05,2.11,1.79,5.26,1.53,7.05-.58Z"/>
    <path class="st18" d="M738.56,307.96c-1.95-1.95-5.12-1.95-7.07,0-1.95,1.95-1.95,5.12,0,7.07l24.99,24.99s-.09.08-.14.12l-11.41,11.41c-1.95,1.95-1.95,5.12,0,7.07l28.44,28.44-41.89,41.89c-1.95,1.95-1.95,5.12,0,7.07.98.98,2.26,1.46,3.54,1.46s2.56-.49,3.54-1.46l41.89-41.89,26.28,26.28c.94.94,2.21,1.46,3.54,1.46s2.6-.53,3.54-1.46l11.41-11.41s.08-.09.12-.14l27.16,27.16c.98.98,2.26,1.46,3.54,1.46s2.56-.49,3.54-1.46c1.95-1.95,1.95-5.12,0-7.07l-120.99-120.99ZM816.44,403.62l-6.19,6.19-54.72-54.72,6.19-6.19,4.05.42,50.25,50.25.42,4.05Z"/>
  </g>
  <g>
    <path class="st11" d="M1019.5,440.34h-52.02c-8.7,0-16.11-6.22-17.62-14.79l-12.86-73.13c-.48-2.72,1.34-5.31,4.06-5.79,2.72-.48,5.31,1.34,5.79,4.06l12.86,73.13c.66,3.78,3.93,6.52,7.77,6.52h52.02c3.84,0,7.11-2.74,7.77-6.52l12.86-73.13c.48-2.72,3.07-4.54,5.79-4.06,2.72.48,4.54,3.07,4.06,5.79l-12.86,73.13c-1.51,8.57-8.92,14.79-17.62,14.79Z"/>
    <path class="st19" d="M1051.5,337.22h-116.01c-2.76,0-5-2.24-5-5s2.24-5,5-5h31.25v-7.89c0-9.86,8.03-17.89,17.89-17.89h17.72c9.87,0,17.89,8.03,17.89,17.89v7.89h31.25c2.76,0,5,2.24,5,5s-2.24,5-5,5ZM976.74,327.22h33.5v-7.89c0-4.35-3.54-7.89-7.89-7.89h-17.72c-4.35,0-7.89,3.54-7.89,7.89v7.89Z"/>
  </g>
  <path class="st8" d="M655.81,425.25h-59.7l55.68-55.68c6.94-6.94,6.94-18.23,0-25.17l-32.22-32.22c-6.94-6.94-18.23-6.94-25.17,0l-59.83,59.83h0c-6.94,6.94-6.94,18.23,0,25.17l32.54,32.54c2.46,2.46,5.53,4.09,8.87,4.75.53.21,1.11.33,1.71.33h78.11c2.64,0,4.78-2.14,4.78-4.78s-2.14-4.78-4.78-4.78ZM601.17,318.94c3.21-3.21,8.44-3.21,11.65,0l32.22,32.22c3.21,3.21,3.21,8.44,0,11.65l-21.59,21.59-43.87-43.87,21.59-21.59ZM541.34,390.42c-3.21-3.21-3.21-8.44,0-11.65l31.49-31.49,43.87,43.87-31.81,31.81c-1.47,1.47-3.42,2.28-5.5,2.28s-4.03-.81-5.5-2.28l-32.55-32.54Z"/>
  <g>
    <path d="M201.38,679.72c-1.92,0-3.83-.55-5.49-1.65l-33.37-22c-.19-.12-.4-.19-.63-.19h-16.13c-8.57,0-15.55-6.97-15.55-15.55v-20.66c0-8.57,6.97-15.55,15.55-15.55h16.13c.22,0,.44-.07.63-.19l33.37-22c3.07-2.02,6.99-2.2,10.23-.46,3.24,1.74,5.25,5.11,5.25,8.79v79.47c0,3.68-2.01,7.05-5.25,8.79-1.48.8-3.11,1.2-4.73,1.2ZM145.75,612.96c-3.7,0-6.7,3.01-6.7,6.7v20.66c0,3.7,3.01,6.7,6.7,6.7h16.13c1.96,0,3.86.57,5.5,1.65l33.37,22c.47.31.89.2,1.17.05.27-.15.6-.44.6-1.01v-79.47c0-.56-.33-.86-.6-1.01-.27-.15-.7-.26-1.17.05l-33.37,22c-1.64,1.08-3.54,1.65-5.5,1.65h-16.13Z"/>
    <path d="M226.41,653.89c-1.13,0-2.26-.43-3.13-1.29-1.73-1.73-1.73-4.53,0-6.25.05-.05,7.05-7.35,7.05-19.12s-7-19.07-7.07-19.14c-1.7-1.74-1.68-4.53.04-6.24,1.73-1.71,4.5-1.71,6.22,0,.39.39,9.64,9.82,9.64,25.38s-9.25,24.98-9.64,25.38c-.86.86-1.99,1.29-3.13,1.29Z"/>
    <path d="M243.1,670.58c-1.13,0-2.26-.43-3.13-1.29-1.73-1.73-1.73-4.53,0-6.25.11-.12,12.61-13.08,12.61-35.81s-12.5-35.7-12.62-35.82c-1.71-1.74-1.7-4.53.03-6.25,1.73-1.71,4.51-1.71,6.23,0,.62.62,15.2,15.51,15.2,42.06s-14.58,41.44-15.2,42.06c-.86.86-1.99,1.29-3.13,1.29Z"/>
  </g>
  <path d="M459.94,608.28c.06-1.4-.47-2.75-1.46-3.74l-38.69-38.69c-.99-.99-2.34-1.52-3.74-1.46-1.4.06-2.7.7-3.61,1.76l-29.2,34.42-22.42-2.32c-1.5-.15-2.99.37-4.05,1.44l-11.22,11.22c-1.95,1.95-1.95,5.12,0,7.07l27.93,27.93-41.16,41.16c-1.95,1.95-1.95,5.12,0,7.07.98.98,2.26,1.46,3.54,1.46s2.56-.49,3.54-1.46l41.16-41.16,25.8,25.8c.94.94,2.21,1.46,3.54,1.46s2.6-.53,3.54-1.46l11.22-11.22c1.06-1.06,1.59-2.55,1.44-4.05l-2.32-22.42,34.42-29.2c1.07-.9,1.7-2.21,1.76-3.61ZM415.28,635.17c-1.26,1.07-1.91,2.69-1.74,4.33l2.35,22.67-6,6.01-53.72-53.72,6-6,22.67,2.35c1.64.17,3.26-.48,4.33-1.74l27.4-32.3,31.01,31.01-32.3,27.4Z"/>
  <g>
    <path d="M795.87,600.73l21.17-24.96,31.65,31.65-24.81,21.05c-2.11,1.79-2.37,4.94-.58,7.05.99,1.17,2.4,1.77,3.82,1.77,1.14,0,2.29-.39,3.23-1.19l28.95-24.56c1.07-.9,1.7-2.21,1.76-3.61.06-1.4-.47-2.75-1.46-3.74l-39.32-39.32c-.99-.99-2.35-1.52-3.74-1.46-1.4.06-2.7.7-3.61,1.76l-24.68,29.1c-1.79,2.11-1.53,5.26.58,7.05,2.11,1.79,5.26,1.53,7.05-.58Z"/>
    <path d="M738.56,567.07c-1.95-1.95-5.12-1.95-7.07,0-1.95,1.95-1.95,5.12,0,7.07l24.99,24.99s-.09.08-.14.12l-11.41,11.41c-1.95,1.95-1.95,5.12,0,7.07l28.44,28.44-41.89,41.89c-1.95,1.95-1.95,5.12,0,7.07.98.98,2.26,1.46,3.54,1.46s2.56-.49,3.54-1.46l41.89-41.89,26.28,26.28c.94.94,2.21,1.46,3.54,1.46s2.6-.53,3.54-1.46l11.41-11.41s.08-.09.12-.14l27.16,27.16c.98.98,2.26,1.46,3.54,1.46s2.56-.49,3.54-1.46c1.95-1.95,1.95-5.12,0-7.07l-120.99-120.99ZM816.44,662.73l-6.19,6.19-54.72-54.72,6.19-6.19,4.05.42,50.25,50.25.42,4.05Z"/>
  </g>
  <g>
    <path d="M1019.5,699.45h-52.02c-8.7,0-16.11-6.22-17.62-14.79l-12.86-73.13c-.48-2.72,1.34-5.31,4.06-5.79,2.72-.48,5.31,1.34,5.79,4.06l12.86,73.13c.66,3.78,3.93,6.52,7.77,6.52h52.02c3.84,0,7.11-2.74,7.77-6.52l12.86-73.13c.48-2.72,3.07-4.54,5.79-4.06,2.72.48,4.54,3.07,4.06,5.79l-12.86,73.13c-1.51,8.57-8.92,14.79-17.62,14.79Z"/>
    <path d="M1051.5,596.33h-116.01c-2.76,0-5-2.24-5-5s2.24-5,5-5h31.25v-7.89c0-9.86,8.03-17.89,17.89-17.89h17.72c9.87,0,17.89,8.03,17.89,17.89v7.89h31.25c2.76,0,5,2.24,5,5s-2.24,5-5,5ZM976.74,586.33h33.5v-7.89c0-4.35-3.54-7.89-7.89-7.89h-17.72c-4.35,0-7.89,3.54-7.89,7.89v7.89Z"/>
  </g>
  <path d="M655.81,684.36h-59.7l55.68-55.68c6.94-6.94,6.94-18.23,0-25.17l-32.22-32.22c-6.94-6.94-18.23-6.94-25.17,0l-59.83,59.83h0c-6.94,6.94-6.94,18.23,0,25.17l32.54,32.54c2.46,2.46,5.53,4.09,8.87,4.75.53.21,1.11.33,1.71.33h78.11c2.64,0,4.78-2.14,4.78-4.78s-2.14-4.78-4.78-4.78ZM601.17,578.05c3.21-3.21,8.44-3.21,11.65,0l32.22,32.22c3.21,3.21,3.21,8.44,0,11.65l-21.59,21.59-43.87-43.87,21.59-21.59ZM541.34,649.53c-3.21-3.21-3.21-8.44,0-11.65l31.49-31.49,43.87,43.87-31.81,31.81c-1.47,1.47-3.42,2.28-5.5,2.28s-4.03-.81-5.5-2.28l-32.55-32.54Z"/>
  <g>
    <path class="st4" d="M201.38,902.56c-1.92,0-3.83-.55-5.49-1.65l-33.37-22c-.19-.12-.4-.19-.63-.19h-16.13c-8.57,0-15.55-6.97-15.55-15.55v-20.66c0-8.57,6.97-15.55,15.55-15.55h16.13c.22,0,.44-.07.63-.19l33.37-22c3.07-2.02,6.99-2.2,10.23-.46,3.24,1.74,5.25,5.11,5.25,8.79v79.47c0,3.68-2.01,7.05-5.25,8.79-1.48.8-3.11,1.2-4.73,1.2ZM145.75,835.81c-3.7,0-6.7,3.01-6.7,6.7v20.66c0,3.7,3.01,6.7,6.7,6.7h16.13c1.96,0,3.86.57,5.5,1.65l33.37,22c.47.31.89.2,1.17.05.27-.15.6-.44.6-1.01v-79.47c0-.56-.33-.86-.6-1.01-.27-.15-.7-.26-1.17.05l-33.37,22c-1.64,1.08-3.54,1.65-5.5,1.65h-16.13Z"/>
    <path class="st4" d="M226.41,876.73c-1.13,0-2.26-.43-3.13-1.29-1.73-1.73-1.73-4.53,0-6.25.05-.05,7.05-7.35,7.05-19.12s-7-19.07-7.07-19.14c-1.7-1.74-1.68-4.53.04-6.24,1.73-1.71,4.5-1.71,6.22,0,.39.39,9.64,9.82,9.64,25.38s-9.25,24.98-9.64,25.38c-.86.86-1.99,1.29-3.13,1.29Z"/>
    <path class="st4" d="M243.1,893.42c-1.13,0-2.26-.43-3.13-1.29-1.73-1.73-1.73-4.53,0-6.25.11-.12,12.61-13.08,12.61-35.81s-12.5-35.7-12.62-35.82c-1.71-1.74-1.7-4.53.03-6.25,1.73-1.71,4.51-1.71,6.23,0,.62.62,15.2,15.51,15.2,42.06s-14.58,41.44-15.2,42.06c-.86.86-1.99,1.29-3.13,1.29Z"/>
  </g>
  <path class="st4" d="M459.94,831.13c.06-1.4-.47-2.75-1.46-3.74l-38.69-38.69c-.99-.99-2.34-1.52-3.74-1.46-1.4.06-2.7.7-3.61,1.76l-29.2,34.42-22.42-2.32c-1.5-.15-2.99.37-4.05,1.44l-11.22,11.22c-1.95,1.95-1.95,5.12,0,7.07l27.93,27.93-41.16,41.16c-1.95,1.95-1.95,5.12,0,7.07.98.98,2.26,1.46,3.54,1.46s2.56-.49,3.54-1.46l41.16-41.16,25.8,25.8c.94.94,2.21,1.46,3.54,1.46s2.6-.53,3.54-1.46l11.22-11.22c1.06-1.06,1.59-2.55,1.44-4.05l-2.32-22.42,34.42-29.2c1.07-.9,1.7-2.21,1.76-3.61ZM415.28,858.02c-1.26,1.07-1.91,2.69-1.74,4.33l2.35,22.67-6,6.01-53.72-53.72,6-6,22.67,2.35c1.64.17,3.26-.48,4.33-1.74l27.4-32.3,31.01,31.01-32.3,27.4Z"/>
  <g>
    <path class="st4" d="M795.87,823.57l21.17-24.96,31.65,31.65-24.81,21.05c-2.11,1.79-2.37,4.94-.58,7.05.99,1.17,2.4,1.77,3.82,1.77,1.14,0,2.29-.39,3.23-1.19l28.95-24.56c1.07-.9,1.7-2.21,1.76-3.61.06-1.4-.47-2.75-1.46-3.74l-39.32-39.32c-.99-.99-2.35-1.52-3.74-1.46-1.4.06-2.7.7-3.61,1.76l-24.68,29.1c-1.79,2.11-1.53,5.26.58,7.05,2.11,1.79,5.26,1.53,7.05-.58Z"/>
    <path class="st4" d="M738.56,789.92c-1.95-1.95-5.12-1.95-7.07,0-1.95,1.95-1.95,5.12,0,7.07l24.99,24.99s-.09.08-.14.12l-11.41,11.41c-1.95,1.95-1.95,5.12,0,7.07l28.44,28.44-41.89,41.89c-1.95,1.95-1.95,5.12,0,7.07.98.98,2.26,1.46,3.54,1.46s2.56-.49,3.54-1.46l41.89-41.89,26.28,26.28c.94.94,2.21,1.46,3.54,1.46s2.6-.53,3.54-1.46l11.41-11.41s.08-.09.12-.14l27.16,27.16c.98.98,2.26,1.46,3.54,1.46s2.56-.49,3.54-1.46c1.95-1.95,1.95-5.12,0-7.07l-120.99-120.99ZM816.44,885.57l-6.19,6.19-54.72-54.72,6.19-6.19,4.05.42,50.25,50.25.42,4.05Z"/>
  </g>
  <g>
    <path class="st4" d="M1019.5,922.29h-52.02c-8.7,0-16.11-6.22-17.62-14.79l-12.86-73.13c-.48-2.72,1.34-5.31,4.06-5.79,2.72-.48,5.31,1.34,5.79,4.06l12.86,73.13c.66,3.78,3.93,6.52,7.77,6.52h52.02c3.84,0,7.11-2.74,7.77-6.52l12.86-73.13c.48-2.72,3.07-4.54,5.79-4.06,2.72.48,4.54,3.07,4.06,5.79l-12.86,73.13c-1.51,8.57-8.92,14.79-17.62,14.79Z"/>
    <path class="st4" d="M1051.5,819.17h-116.01c-2.76,0-5-2.24-5-5s2.24-5,5-5h31.25v-7.89c0-9.86,8.03-17.89,17.89-17.89h17.72c9.87,0,17.89,8.03,17.89,17.89v7.89h31.25c2.76,0,5,2.24,5,5s-2.24,5-5,5ZM976.74,809.17h33.5v-7.89c0-4.35-3.54-7.89-7.89-7.89h-17.72c-4.35,0-7.89,3.54-7.89,7.89v7.89Z"/>
  </g>
  <path class="st4" d="M655.81,907.2h-59.7l55.68-55.68c6.94-6.94,6.94-18.23,0-25.17l-32.22-32.22c-6.94-6.94-18.23-6.94-25.17,0l-59.83,59.83h0c-6.94,6.94-6.94,18.23,0,25.17l32.54,32.54c2.46,2.46,5.53,4.09,8.87,4.75.53.21,1.11.33,1.71.33h78.11c2.64,0,4.78-2.14,4.78-4.78s-2.14-4.78-4.78-4.78ZM601.17,800.89c3.21-3.21,8.44-3.21,11.65,0l32.22,32.22c3.21,3.21,3.21,8.44,0,11.65l-21.59,21.59-43.87-43.87,21.59-21.59ZM541.34,872.38c-3.21-3.21-3.21-8.44,0-11.65l31.49-31.49,43.87,43.87-31.81,31.81c-1.47,1.47-3.42,2.28-5.5,2.28s-4.03-.81-5.5-2.28l-32.55-32.54Z"/>
  <g>
    <path class="st5" d="M201.38,1113.01c-1.92,0-3.83-.55-5.49-1.65l-33.37-22c-.19-.12-.4-.19-.63-.19h-16.13c-8.57,0-15.55-6.97-15.55-15.55v-20.66c0-8.57,6.97-15.55,15.55-15.55h16.13c.22,0,.44-.07.63-.19l33.37-22c3.07-2.02,6.99-2.2,10.23-.46,3.24,1.74,5.25,5.11,5.25,8.79v79.47c0,3.68-2.01,7.05-5.25,8.79-1.48.8-3.11,1.2-4.73,1.2ZM145.75,1046.25c-3.7,0-6.7,3.01-6.7,6.7v20.66c0,3.7,3.01,6.7,6.7,6.7h16.13c1.96,0,3.86.57,5.5,1.65l33.37,22c.47.31.89.2,1.17.05.27-.15.6-.44.6-1.01v-79.47c0-.56-.33-.86-.6-1.01-.27-.15-.7-.26-1.17.05l-33.37,22c-1.64,1.08-3.54,1.65-5.5,1.65h-16.13Z"/>
    <path class="st5" d="M226.41,1087.18c-1.13,0-2.26-.43-3.13-1.29-1.73-1.73-1.73-4.53,0-6.25.05-.05,7.05-7.35,7.05-19.12s-7-19.07-7.07-19.14c-1.7-1.74-1.68-4.53.04-6.24,1.73-1.71,4.5-1.71,6.22,0,.39.39,9.64,9.82,9.64,25.38s-9.25,24.98-9.64,25.38c-.86.86-1.99,1.29-3.13,1.29Z"/>
    <path class="st5" d="M243.1,1103.87c-1.13,0-2.26-.43-3.13-1.29-1.73-1.73-1.73-4.53,0-6.25.11-.12,12.61-13.08,12.61-35.81s-12.5-35.7-12.62-35.82c-1.71-1.74-1.7-4.53.03-6.25,1.73-1.71,4.51-1.71,6.23,0,.62.62,15.2,15.51,15.2,42.06s-14.58,41.44-15.2,42.06c-.86.86-1.99,1.29-3.13,1.29Z"/>
  </g>
  <path class="st5" d="M459.94,1041.57c.06-1.4-.47-2.75-1.46-3.74l-38.69-38.69c-.99-.99-2.34-1.52-3.74-1.46-1.4.06-2.7.7-3.61,1.76l-29.2,34.42-22.42-2.32c-1.5-.15-2.99.37-4.05,1.44l-11.22,11.22c-1.95,1.95-1.95,5.12,0,7.07l27.93,27.93-41.16,41.16c-1.95,1.95-1.95,5.12,0,7.07.98.98,2.26,1.46,3.54,1.46s2.56-.49,3.54-1.46l41.16-41.16,25.8,25.8c.94.94,2.21,1.46,3.54,1.46s2.6-.53,3.54-1.46l11.22-11.22c1.06-1.06,1.59-2.55,1.44-4.05l-2.32-22.42,34.42-29.2c1.07-.9,1.7-2.21,1.76-3.61ZM415.28,1068.46c-1.26,1.07-1.91,2.69-1.74,4.33l2.35,22.67-6,6.01-53.72-53.72,6-6,22.67,2.35c1.64.17,3.26-.48,4.33-1.74l27.4-32.3,31.01,31.01-32.3,27.4Z"/>
  <g>
    <path class="st5" d="M795.87,1034.02l21.17-24.96,31.65,31.65-24.81,21.05c-2.11,1.79-2.37,4.94-.58,7.05.99,1.17,2.4,1.77,3.82,1.77,1.14,0,2.29-.39,3.23-1.19l28.95-24.56c1.07-.9,1.7-2.21,1.76-3.61.06-1.4-.47-2.75-1.46-3.74l-39.32-39.32c-.99-.99-2.35-1.52-3.74-1.46-1.4.06-2.7.7-3.61,1.76l-24.68,29.1c-1.79,2.11-1.53,5.26.58,7.05,2.11,1.79,5.26,1.53,7.05-.58Z"/>
    <path class="st5" d="M738.56,1000.36c-1.95-1.95-5.12-1.95-7.07,0-1.95,1.95-1.95,5.12,0,7.07l24.99,24.99s-.09.08-.14.12l-11.41,11.41c-1.95,1.95-1.95,5.12,0,7.07l28.44,28.44-41.89,41.89c-1.95,1.95-1.95,5.12,0,7.07.98.98,2.26,1.46,3.54,1.46s2.56-.49,3.54-1.46l41.89-41.89,26.28,26.28c.94.94,2.21,1.46,3.54,1.46s2.6-.53,3.54-1.46l11.41-11.41s.08-.09.12-.14l27.16,27.16c.98.98,2.26,1.46,3.54,1.46s2.56-.49,3.54-1.46c1.95-1.95,1.95-5.12,0-7.07l-120.99-120.99ZM816.44,1096.02l-6.19,6.19-54.72-54.72,6.19-6.19,4.05.42,50.25,50.25.42,4.05Z"/>
  </g>
  <g>
    <path class="st5" d="M1019.5,1132.74h-52.02c-8.7,0-16.11-6.22-17.62-14.79l-12.86-73.13c-.48-2.72,1.34-5.31,4.06-5.79,2.72-.48,5.31,1.34,5.79,4.06l12.86,73.13c.66,3.78,3.93,6.52,7.77,6.52h52.02c3.84,0,7.11-2.74,7.77-6.52l12.86-73.13c.48-2.72,3.07-4.54,5.79-4.06,2.72.48,4.54,3.07,4.06,5.79l-12.86,73.13c-1.51,8.57-8.92,14.79-17.62,14.79Z"/>
    <path class="st5" d="M1051.5,1029.62h-116.01c-2.76,0-5-2.24-5-5s2.24-5,5-5h31.25v-7.89c0-9.86,8.03-17.89,17.89-17.89h17.72c9.87,0,17.89,8.03,17.89,17.89v7.89h31.25c2.76,0,5,2.24,5,5s-2.24,5-5,5ZM976.74,1019.62h33.5v-7.89c0-4.35-3.54-7.89-7.89-7.89h-17.72c-4.35,0-7.89,3.54-7.89,7.89v7.89Z"/>
  </g>
  <path class="st5" d="M655.81,1117.65h-59.7l55.68-55.68c6.94-6.94,6.94-18.23,0-25.17l-32.22-32.22c-6.94-6.94-18.23-6.94-25.17,0l-59.83,59.83h0c-6.94,6.94-6.94,18.23,0,25.17l32.54,32.54c2.46,2.46,5.53,4.09,8.87,4.75.53.21,1.11.33,1.71.33h78.11c2.64,0,4.78-2.14,4.78-4.78s-2.14-4.78-4.78-4.78ZM601.17,1011.34c3.21-3.21,8.44-3.21,11.65,0l32.22,32.22c3.21,3.21,3.21,8.44,0,11.65l-21.59,21.59-43.87-43.87,21.59-21.59ZM541.34,1082.82c-3.21-3.21-3.21-8.44,0-11.65l31.49-31.49,43.87,43.87-31.81,31.81c-1.47,1.47-3.42,2.28-5.5,2.28s-4.03-.81-5.5-2.28l-32.55-32.54Z"/>
  <g>
    <path class="st3" d="M-114.86,202.28h-97.03"/>
    <path class="st3" d="M-156.19,152.87l-60.03-60.03"/>
    <path class="st3" d="M-261.27,134.42l74.32-74.32c6.31-6.32,16.55-6.32,22.87,0l40.02,40.02c6.31,6.32,6.31,16.55,0,22.87l-74.73,74.73c-2.92,2.93-6.89,4.57-11.03,4.57s-8.1-1.64-11.03-4.57l-40.43-40.43c-6.32-6.31-6.32-16.55,0-22.87Z"/>
  </g>
</svg>